<?xml version="1.0" encoding="UTF-8" standalone="no"?>
<!DOCTYPE svg PUBLIC "-//W3C//DTD SVG 1.1//EN"
 "http://www.w3.org/Graphics/SVG/1.1/DTD/svg11.dtd">
<!-- Generated by graphviz version 2.38.0 (20140413.2041)
 -->
<!-- Title: pluginGraph Pages: 1 -->
<svg width="4092pt" height="620pt"
 viewBox="0.00 0.00 4091.66 620.00" xmlns="http://www.w3.org/2000/svg" xmlns:xlink="http://www.w3.org/1999/xlink">
<g id="graph0" class="graph" transform="scale(1 1) rotate(0) translate(4 616)">
<title>pluginGraph</title>
<polygon fill="white" stroke="none" points="-4,4 -4,-616 4087.66,-616 4087.66,4 -4,4"/>
<!-- afkkickhelper -->
<g id="node1" class="node"><title>afkkickhelper</title>
<ellipse fill="none" stroke="black" cx="1023.44" cy="-594" rx="59.2899" ry="18"/>
<text text-anchor="middle" x="1023.44" y="-590.3" font-family="Times,serif" font-size="14.00">afkkickhelper</text>
</g>
<!-- afkkick -->
<g id="node2" class="node"><title>afkkick</title>
<ellipse fill="none" stroke="black" cx="1905.44" cy="-378" rx="37.0935" ry="18"/>
<text text-anchor="middle" x="1905.44" y="-374.3" font-family="Times,serif" font-size="14.00">afkkick</text>
</g>
<!-- afkkickhelper&#45;&gt;afkkick -->
<g id="edge1" class="edge"><title>afkkickhelper&#45;&gt;afkkick</title>
<path fill="none" stroke="black" d="M1082.85,-593.726C1232.6,-594.746 1621.84,-592.151 1738.44,-540 1805.66,-509.938 1862.05,-440.689 1888.79,-403.565"/>
<polygon fill="black" stroke="black" points="1891.73,-405.478 1894.64,-395.292 1886.01,-401.437 1891.73,-405.478"/>
</g>
<!-- arclight -->
<g id="node3" class="node"><title>arclight</title>
<ellipse fill="none" stroke="black" cx="650.445" cy="-522" rx="37.8943" ry="18"/>
<text text-anchor="middle" x="650.445" y="-518.3" font-family="Times,serif" font-size="14.00">arclight</text>
</g>
<!-- afkkickhelper&#45;&gt;arclight -->
<g id="edge2" class="edge"><title>afkkickhelper&#45;&gt;arclight</title>
<path fill="none" stroke="black" d="M974.298,-583.777C901.235,-570.065 765.061,-544.51 694.847,-531.333"/>
<polygon fill="black" stroke="black" points="695.455,-527.886 684.981,-529.481 694.164,-534.766 695.455,-527.886"/>
</g>
<!-- captains -->
<g id="node4" class="node"><title>captains</title>
<ellipse fill="none" stroke="black" cx="1184.44" cy="-450" rx="39.7935" ry="18"/>
<text text-anchor="middle" x="1184.44" y="-446.3" font-family="Times,serif" font-size="14.00">captains</text>
</g>
<!-- afkkickhelper&#45;&gt;captains -->
<g id="edge3" class="edge"><title>afkkickhelper&#45;&gt;captains</title>
<path fill="none" stroke="black" d="M1062.19,-580.297C1084.37,-571.581 1111.64,-558.266 1131.44,-540 1150.44,-522.478 1164.82,-496.58 1173.77,-477.232"/>
<polygon fill="black" stroke="black" points="1176.98,-478.619 1177.84,-468.059 1170.58,-475.781 1176.98,-478.619"/>
</g>
<!-- scoreboard -->
<g id="node5" class="node"><title>scoreboard</title>
<ellipse fill="none" stroke="black" cx="2630.44" cy="-18" rx="49.2915" ry="18"/>
<text text-anchor="middle" x="2630.44" y="-14.3" font-family="Times,serif" font-size="14.00">scoreboard</text>
</g>
<!-- afkkickhelper&#45;&gt;scoreboard -->
<g id="edge4" class="edge"><title>afkkickhelper&#45;&gt;scoreboard</title>
<path fill="none" stroke="black" d="M1082.16,-591.689C1236.27,-587.802 1649.48,-574.393 1781.44,-540 1871.29,-516.584 1970.44,-543.847 1970.44,-451 1970.44,-451 1970.44,-451 1970.44,-377 1970.44,-306.119 2446.87,-97.2585 2590.16,-36.0442"/>
<polygon fill="black" stroke="black" points="2591.67,-39.2037 2599.5,-32.0619 2588.93,-32.7646 2591.67,-39.2037"/>
</g>
<!-- timedstart -->
<g id="node6" class="node"><title>timedstart</title>
<ellipse fill="none" stroke="black" cx="552.445" cy="-378" rx="46.2923" ry="18"/>
<text text-anchor="middle" x="552.445" y="-374.3" font-family="Times,serif" font-size="14.00">timedstart</text>
</g>
<!-- afkkickhelper&#45;&gt;timedstart -->
<g id="edge5" class="edge"><title>afkkickhelper&#45;&gt;timedstart</title>
<path fill="none" stroke="black" d="M967.568,-588.028C854.489,-577.238 608.489,-551.704 594.445,-540 554.743,-506.913 545.535,-443.062 546.589,-406.497"/>
<polygon fill="black" stroke="black" points="550.108,-406.284 547.223,-396.09 543.121,-405.858 550.108,-406.284"/>
</g>
<!-- arclight&#45;&gt;arclight -->
<g id="edge6" class="edge"><title>arclight&#45;&gt;arclight</title>
<path fill="none" stroke="black" d="M677.092,-534.807C692.176,-537.308 706.141,-533.039 706.141,-522 706.141,-513.548 697.955,-509.065 687.348,-508.55"/>
<polygon fill="black" stroke="black" points="686.853,-505.074 677.092,-509.193 687.291,-512.06 686.853,-505.074"/>
</g>
<!-- arclight&#45;&gt;captains -->
<g id="edge7" class="edge"><title>arclight&#45;&gt;captains</title>
<path fill="none" stroke="black" d="M687.075,-517.596C763.563,-510.281 945.737,-491.782 1097.44,-468 1111.14,-465.854 1125.96,-463.114 1139.42,-460.464"/>
<polygon fill="black" stroke="black" points="1140.3,-463.859 1149.42,-458.466 1138.92,-456.995 1140.3,-463.859"/>
</g>
<!-- bots -->
<g id="node7" class="node"><title>bots</title>
<ellipse fill="none" stroke="black" cx="912.445" cy="-162" rx="27" ry="18"/>
<text text-anchor="middle" x="912.445" y="-158.3" font-family="Times,serif" font-size="14.00">bots</text>
</g>
<!-- arclight&#45;&gt;bots -->
<g id="edge8" class="edge"><title>arclight&#45;&gt;bots</title>
<path fill="none" stroke="black" d="M613.777,-517.581C518.932,-507.126 277.137,-469.348 339.445,-360 453.273,-160.232 597.808,-218.73 824.445,-180 841.808,-177.033 861.022,-173.366 877.056,-170.198"/>
<polygon fill="black" stroke="black" points="877.958,-173.587 887.082,-168.2 876.59,-166.722 877.958,-173.587"/>
</g>
<!-- communityslots -->
<g id="node8" class="node"><title>communityslots</title>
<ellipse fill="none" stroke="black" cx="908.445" cy="-306" rx="67.6881" ry="18"/>
<text text-anchor="middle" x="908.445" y="-302.3" font-family="Times,serif" font-size="14.00">communityslots</text>
</g>
<!-- arclight&#45;&gt;communityslots -->
<g id="edge9" class="edge"><title>arclight&#45;&gt;communityslots</title>
<path fill="none" stroke="black" d="M623.531,-509.18C567.333,-482.947 446.774,-417.624 497.445,-360 519.184,-335.277 719.941,-318.814 832.613,-311.437"/>
<polygon fill="black" stroke="black" points="833.146,-314.91 842.899,-310.773 832.695,-307.925 833.146,-314.91"/>
</g>
<!-- mapvote -->
<g id="node9" class="node"><title>mapvote</title>
<ellipse fill="none" stroke="black" cx="1764.44" cy="-90" rx="41.6928" ry="18"/>
<text text-anchor="middle" x="1764.44" y="-86.3" font-family="Times,serif" font-size="14.00">mapvote</text>
</g>
<!-- arclight&#45;&gt;mapvote -->
<g id="edge10" class="edge"><title>arclight&#45;&gt;mapvote</title>
<path fill="none" stroke="black" d="M679.99,-510.734C735.288,-491.953 858.499,-452.144 965.445,-432 1046.63,-416.709 1263.23,-436.12 1335.44,-396 1458.77,-327.488 1409.6,-220.017 1528.44,-144 1584.71,-108.013 1662.15,-96.2842 1712.74,-92.5623"/>
<polygon fill="black" stroke="black" points="1713.05,-96.0497 1722.8,-91.9018 1712.59,-89.0647 1713.05,-96.0497"/>
</g>
<!-- winorlose -->
<g id="node10" class="node"><title>winorlose</title>
<ellipse fill="none" stroke="black" cx="649.445" cy="-90" rx="45.4919" ry="18"/>
<text text-anchor="middle" x="649.445" y="-86.3" font-family="Times,serif" font-size="14.00">winorlose</text>
</g>
<!-- arclight&#45;&gt;winorlose -->
<g id="edge11" class="edge"><title>arclight&#45;&gt;winorlose</title>
<path fill="none" stroke="black" d="M613.447,-518.265C540.308,-511.964 380.995,-494.87 334.445,-468 262.293,-426.352 242.805,-402.333 214.445,-324 155.49,-161.165 465.493,-109.627 594.904,-95.6211"/>
<polygon fill="black" stroke="black" points="595.428,-99.0854 605.01,-94.5642 594.7,-92.1234 595.428,-99.0854"/>
</g>
<!-- captains&#45;&gt;afkkick -->
<g id="edge12" class="edge"><title>captains&#45;&gt;afkkick</title>
<path fill="none" stroke="black" d="M1223.8,-447.14C1323.39,-442.122 1593.36,-426.574 1816.44,-396 1831.37,-393.955 1847.58,-391.061 1862.03,-388.24"/>
<polygon fill="black" stroke="black" points="1863.07,-391.6 1872.19,-386.211 1861.7,-384.736 1863.07,-391.6"/>
</g>
<!-- captains&#45;&gt;captains -->
<g id="edge13" class="edge"><title>captains&#45;&gt;captains</title>
<path fill="none" stroke="black" d="M1212.32,-462.854C1227.82,-465.253 1242.09,-460.969 1242.09,-450 1242.09,-441.516 1233.55,-437.031 1222.52,-436.544"/>
<polygon fill="black" stroke="black" points="1222.1,-433.063 1212.32,-437.146 1222.51,-440.051 1222.1,-433.063"/>
</g>
<!-- captains&#45;&gt;scoreboard -->
<g id="edge14" class="edge"><title>captains&#45;&gt;scoreboard</title>
<path fill="none" stroke="black" d="M1221.11,-443.012C1257.79,-435.871 1314.86,-421.557 1358.44,-396 1432.77,-352.417 1466.44,-321.164 1466.44,-235 1466.44,-235 1466.44,-235 1466.44,-161 1466.44,-44.3132 1599.13,-95.3865 1713.44,-72 1878.4,-38.2547 2395.17,-24.1185 2571.1,-20.2022"/>
<polygon fill="black" stroke="black" points="2571.29,-23.6992 2581.21,-19.9803 2571.13,-16.7009 2571.29,-23.6992"/>
</g>
<!-- captains&#45;&gt;timedstart -->
<g id="edge15" class="edge"><title>captains&#45;&gt;timedstart</title>
<path fill="none" stroke="black" d="M1151.31,-439.895C1141.66,-436.898 1131.2,-433.86 1121.44,-432 902.591,-390.265 841.961,-427.803 621.445,-396 613.632,-394.873 605.435,-393.406 597.51,-391.807"/>
<polygon fill="black" stroke="black" points="598.176,-388.37 587.668,-389.725 596.727,-395.218 598.176,-388.37"/>
</g>
<!-- captains&#45;&gt;mapvote -->
<g id="edge16" class="edge"><title>captains&#45;&gt;mapvote</title>
<path fill="none" stroke="black" d="M1224.14,-447.675C1277.18,-444.444 1372.78,-433.423 1444.44,-396 1480.31,-377.272 1674.22,-182.449 1741.46,-114.345"/>
<polygon fill="black" stroke="black" points="1744.13,-116.63 1748.66,-107.053 1739.14,-111.714 1744.13,-116.63"/>
</g>
<!-- sidebar -->
<g id="node11" class="node"><title>sidebar</title>
<ellipse fill="none" stroke="black" cx="425.445" cy="-90" rx="36.2938" ry="18"/>
<text text-anchor="middle" x="425.445" y="-86.3" font-family="Times,serif" font-size="14.00">sidebar</text>
</g>
<!-- captains&#45;&gt;sidebar -->
<g id="edge17" class="edge"><title>captains&#45;&gt;sidebar</title>
<path fill="none" stroke="black" d="M1154.2,-438.147C1146.54,-435.768 1138.26,-433.511 1130.44,-432 1028.25,-412.244 758.583,-438.219 663.445,-396 642.18,-386.563 643.369,-374.83 625.445,-360 562.15,-307.633 523.439,-318.67 475.445,-252 445.974,-211.061 433.522,-152.273 428.532,-118.224"/>
<polygon fill="black" stroke="black" points="431.97,-117.533 427.161,-108.093 425.033,-118.472 431.97,-117.533"/>
</g>
<!-- updatetoreadyroomhelper -->
<g id="node12" class="node"><title>updatetoreadyroomhelper</title>
<ellipse fill="none" stroke="black" cx="1635.44" cy="-378" rx="101.282" ry="18"/>
<text text-anchor="middle" x="1635.44" y="-374.3" font-family="Times,serif" font-size="14.00">updatetoreadyroomhelper</text>
</g>
<!-- captains&#45;&gt;updatetoreadyroomhelper -->
<g id="edge18" class="edge"><title>captains&#45;&gt;updatetoreadyroomhelper</title>
<path fill="none" stroke="black" d="M1221.35,-443.272C1293.15,-432.128 1453.21,-407.284 1551.98,-391.955"/>
<polygon fill="black" stroke="black" points="1552.58,-395.403 1561.93,-390.41 1551.51,-388.486 1552.58,-395.403"/>
</g>
<!-- push -->
<g id="node13" class="node"><title>push</title>
<ellipse fill="none" stroke="black" cx="2070.44" cy="-90" rx="27.0966" ry="18"/>
<text text-anchor="middle" x="2070.44" y="-86.3" font-family="Times,serif" font-size="14.00">push</text>
</g>
<!-- captains&#45;&gt;push -->
<g id="edge19" class="edge"><title>captains&#45;&gt;push</title>
<path fill="none" stroke="black" d="M1224,-448.562C1335.8,-446.808 1652.04,-438.153 1745.44,-396 1889.68,-330.908 2010.87,-175.18 2053.79,-115.159"/>
<polygon fill="black" stroke="black" points="2056.86,-116.884 2059.77,-106.698 2051.14,-112.842 2056.86,-116.884"/>
</g>
<!-- spawnselectionoverrides -->
<g id="node14" class="node"><title>spawnselectionoverrides</title>
<ellipse fill="none" stroke="black" cx="1033.44" cy="-378" rx="96.6831" ry="18"/>
<text text-anchor="middle" x="1033.44" y="-374.3" font-family="Times,serif" font-size="14.00">spawnselectionoverrides</text>
</g>
<!-- captains&#45;&gt;spawnselectionoverrides -->
<g id="edge20" class="edge"><title>captains&#45;&gt;spawnselectionoverrides</title>
<path fill="none" stroke="black" d="M1157.8,-436.647C1135.48,-426.299 1103.17,-411.325 1077.09,-399.231"/>
<polygon fill="black" stroke="black" points="1078.33,-395.95 1067.79,-394.92 1075.39,-402.301 1078.33,-395.95"/>
</g>
<!-- timedstart&#45;&gt;afkkickhelper -->
<g id="edge21" class="edge"><title>timedstart&#45;&gt;afkkickhelper</title>
<path fill="none" stroke="black" d="M557.328,-396.09C561.957,-429.522 568.636,-503.49 612.445,-540 625.704,-551.051 845.731,-574.429 958.323,-586.087"/>
<polygon fill="black" stroke="black" points="958.237,-589.597 968.544,-587.144 958.957,-582.634 958.237,-589.597"/>
</g>
<!-- timedstart&#45;&gt;arclight -->
<g id="edge22" class="edge"><title>timedstart&#45;&gt;arclight</title>
<path fill="none" stroke="black" d="M563.857,-395.537C581,-420.377 613.509,-467.481 633.449,-496.374"/>
<polygon fill="black" stroke="black" points="630.642,-498.469 639.203,-504.711 636.403,-494.492 630.642,-498.469"/>
</g>
<!-- timedstart&#45;&gt;captains -->
<g id="edge23" class="edge"><title>timedstart&#45;&gt;captains</title>
<path fill="none" stroke="black" d="M592.78,-387.07C607.532,-390.316 624.218,-393.804 639.445,-396 859.961,-427.803 920.591,-390.265 1139.44,-432 1142.3,-432.544 1145.21,-433.188 1148.11,-433.903"/>
<polygon fill="black" stroke="black" points="1147.32,-437.313 1157.88,-436.56 1149.15,-430.558 1147.32,-437.313"/>
</g>
<!-- timedstart&#45;&gt;timedstart -->
<g id="edge24" class="edge"><title>timedstart&#45;&gt;timedstart</title>
<path fill="none" stroke="black" d="M584.459,-390.985C601.316,-393.086 616.591,-388.758 616.591,-378 616.591,-369.511 607.08,-365.026 594.787,-364.544"/>
<polygon fill="black" stroke="black" points="594.289,-361.063 584.459,-365.015 594.609,-368.055 594.289,-361.063"/>
</g>
<!-- timedstart&#45;&gt;bots -->
<g id="edge25" class="edge"><title>timedstart&#45;&gt;bots</title>
<path fill="none" stroke="black" d="M553.773,-359.978C557.342,-326.665 570.205,-252.899 615.445,-216 688.487,-156.425 731.723,-196.94 824.445,-180 841.647,-176.857 860.705,-173.198 876.674,-170.081"/>
<polygon fill="black" stroke="black" points="877.531,-173.479 886.671,-168.121 876.185,-166.61 877.531,-173.479"/>
</g>
<!-- timedstart&#45;&gt;communityslots -->
<g id="edge26" class="edge"><title>timedstart&#45;&gt;communityslots</title>
<path fill="none" stroke="black" d="M593.329,-369.268C646.908,-359.095 743.783,-340.563 826.445,-324 833.053,-322.676 839.958,-321.274 846.834,-319.865"/>
<polygon fill="black" stroke="black" points="847.76,-323.248 856.85,-317.806 846.35,-316.392 847.76,-323.248"/>
</g>
<!-- timedstart&#45;&gt;mapvote -->
<g id="edge27" class="edge"><title>timedstart&#45;&gt;mapvote</title>
<path fill="none" stroke="black" d="M585.315,-365.184C644.068,-343.863 770.754,-296.981 875.445,-252 909.785,-237.245 915.72,-226.985 951.445,-216 1150.5,-154.791 1208.6,-175.59 1414.44,-144 1522.06,-127.485 1648.34,-108.446 1715.92,-98.2856"/>
<polygon fill="black" stroke="black" points="1716.48,-101.74 1725.85,-96.7926 1715.44,-94.818 1716.48,-101.74"/>
</g>
<!-- bots&#45;&gt;captains -->
<g id="edge28" class="edge"><title>bots&#45;&gt;captains</title>
<path fill="none" stroke="black" d="M939.455,-163.886C1003.44,-166.611 1161.28,-177.207 1193.44,-216 1203.66,-228.318 1194.62,-236.043 1193.44,-252 1188.71,-316.22 1173.22,-331.745 1177.44,-396 1178,-404.465 1179.05,-413.642 1180.17,-421.944"/>
<polygon fill="black" stroke="black" points="1176.71,-422.471 1181.6,-431.871 1183.64,-421.475 1176.71,-422.471"/>
</g>
<!-- bots&#45;&gt;bots -->
<g id="edge29" class="edge"><title>bots&#45;&gt;bots</title>
<path fill="none" stroke="black" d="M932.34,-174.432C945.133,-177.675 957.445,-173.531 957.445,-162 957.445,-153.622 950.945,-149.143 942.484,-148.564"/>
<polygon fill="black" stroke="black" points="941.947,-145.1 932.34,-149.568 942.636,-152.066 941.947,-145.1"/>
</g>
<!-- bots&#45;&gt;mapvote -->
<g id="edge30" class="edge"><title>bots&#45;&gt;mapvote</title>
<path fill="none" stroke="black" d="M939.35,-158.789C1060.17,-148.863 1553.61,-108.322 1713.9,-95.1529"/>
<polygon fill="black" stroke="black" points="1714.29,-98.6329 1723.97,-94.3257 1713.71,-91.6564 1714.29,-98.6329"/>
</g>
<!-- bots&#45;&gt;winorlose -->
<g id="edge31" class="edge"><title>bots&#45;&gt;winorlose</title>
<path fill="none" stroke="black" d="M887.702,-154.415C843.793,-142.728 751.613,-118.193 695.66,-103.301"/>
<polygon fill="black" stroke="black" points="696.556,-99.9173 685.992,-100.727 694.755,-106.682 696.556,-99.9173"/>
</g>
<!-- bots&#45;&gt;sidebar -->
<g id="edge32" class="edge"><title>bots&#45;&gt;sidebar</title>
<path fill="none" stroke="black" d="M887.099,-155.694C869.555,-152.122 845.639,-147.452 824.445,-144 696.749,-123.203 545.062,-104.766 470.876,-96.1534"/>
<polygon fill="black" stroke="black" points="470.841,-92.6261 460.505,-94.9549 470.037,-99.5798 470.841,-92.6261"/>
</g>
<!-- bots&#45;&gt;push -->
<g id="edge34" class="edge"><title>bots&#45;&gt;push</title>
<path fill="none" stroke="black" d="M939.413,-159.496C1048.72,-153.381 1469.46,-129.686 1815.44,-108 1892.8,-103.152 1983.32,-97.0045 2033.02,-93.5885"/>
<polygon fill="black" stroke="black" points="2033.54,-97.0609 2043.28,-92.8823 2033.06,-90.0774 2033.54,-97.0609"/>
</g>
<!-- forceroundstart -->
<g id="node15" class="node"><title>forceroundstart</title>
<ellipse fill="none" stroke="black" cx="930.445" cy="-90" rx="64.189" ry="18"/>
<text text-anchor="middle" x="930.445" y="-86.3" font-family="Times,serif" font-size="14.00">forceroundstart</text>
</g>
<!-- bots&#45;&gt;forceroundstart -->
<g id="edge33" class="edge"><title>bots&#45;&gt;forceroundstart</title>
<path fill="none" stroke="black" d="M916.802,-144.055C918.806,-136.261 921.233,-126.822 923.481,-118.079"/>
<polygon fill="black" stroke="black" points="926.902,-118.832 926.002,-108.275 920.122,-117.089 926.902,-118.832"/>
</g>
<!-- communityslots&#45;&gt;captains -->
<g id="edge35" class="edge"><title>communityslots&#45;&gt;captains</title>
<path fill="none" stroke="black" d="M906.896,-324.066C906.085,-344.216 908.125,-377.341 927.445,-396 993.355,-459.655 1041.45,-410.197 1130.44,-432 1134.8,-433.068 1139.33,-434.296 1143.82,-435.593"/>
<polygon fill="black" stroke="black" points="1142.93,-438.981 1153.51,-438.507 1144.94,-432.277 1142.93,-438.981"/>
</g>
<!-- communityslots&#45;&gt;scoreboard -->
<g id="edge36" class="edge"><title>communityslots&#45;&gt;scoreboard</title>
<path fill="none" stroke="black" d="M841.284,-303.249C759.449,-299.543 628.253,-287.993 597.445,-252 545.42,-191.22 539.614,-129.304 595.445,-72 630.822,-35.6894 2238.38,-21.8866 2570.71,-19.4187"/>
<polygon fill="black" stroke="black" points="2571.11,-22.916 2581.08,-19.3423 2571.06,-15.9162 2571.11,-22.916"/>
</g>
<!-- communityslots&#45;&gt;bots -->
<g id="edge37" class="edge"><title>communityslots&#45;&gt;bots</title>
<path fill="none" stroke="black" d="M908.927,-287.871C909.609,-263.67 910.861,-219.211 911.673,-190.393"/>
<polygon fill="black" stroke="black" points="915.177,-190.284 911.96,-180.189 908.18,-190.087 915.177,-190.284"/>
</g>
<!-- communityslots&#45;&gt;communityslots -->
<g id="edge38" class="edge"><title>communityslots&#45;&gt;communityslots</title>
<path fill="none" stroke="black" d="M954.672,-319.262C975.732,-320.616 994.039,-316.195 994.039,-306 994.039,-297.477 981.246,-292.99 964.747,-292.538"/>
<polygon fill="black" stroke="black" points="964.601,-289.04 954.672,-292.738 964.74,-296.039 964.601,-289.04"/>
</g>
<!-- communityslots&#45;&gt;sidebar -->
<g id="edge39" class="edge"><title>communityslots&#45;&gt;sidebar</title>
<path fill="none" stroke="black" d="M841.197,-303.924C740.792,-301.046 557.968,-290.508 506.445,-252 464.37,-220.554 483.052,-190.407 458.445,-144 453.47,-134.618 447.47,-124.655 441.958,-115.93"/>
<polygon fill="black" stroke="black" points="444.803,-113.883 436.454,-107.361 438.913,-117.666 444.803,-113.883"/>
</g>
<!-- betterknownas -->
<g id="node16" class="node"><title>betterknownas</title>
<ellipse fill="none" stroke="black" cx="2790.44" cy="-234" rx="61.99" ry="18"/>
<text text-anchor="middle" x="2790.44" y="-230.3" font-family="Times,serif" font-size="14.00">betterknownas</text>
</g>
<!-- communityslots&#45;&gt;betterknownas -->
<g id="edge40" class="edge"><title>communityslots&#45;&gt;betterknownas</title>
<path fill="none" stroke="black" d="M974.873,-302.529C1264.98,-291.739 2419.68,-248.791 2719.18,-237.651"/>
<polygon fill="black" stroke="black" points="2719.61,-241.137 2729.47,-237.268 2719.35,-234.142 2719.61,-241.137"/>
</g>
<!-- chatchannels -->
<g id="node17" class="node"><title>chatchannels</title>
<ellipse fill="none" stroke="black" cx="1016.44" cy="-234" rx="55.7903" ry="18"/>
<text text-anchor="middle" x="1016.44" y="-230.3" font-family="Times,serif" font-size="14.00">chatchannels</text>
</g>
<!-- communityslots&#45;&gt;chatchannels -->
<g id="edge41" class="edge"><title>communityslots&#45;&gt;chatchannels</title>
<path fill="none" stroke="black" d="M932.952,-289.116C948.075,-279.314 967.65,-266.626 984.045,-256"/>
<polygon fill="black" stroke="black" points="986.289,-258.716 992.777,-250.34 982.482,-252.842 986.289,-258.716"/>
</g>
<!-- karma -->
<g id="node18" class="node"><title>karma</title>
<ellipse fill="none" stroke="black" cx="1349.44" cy="-234" rx="33.2948" ry="18"/>
<text text-anchor="middle" x="1349.44" y="-230.3" font-family="Times,serif" font-size="14.00">karma</text>
</g>
<!-- communityslots&#45;&gt;karma -->
<g id="edge42" class="edge"><title>communityslots&#45;&gt;karma</title>
<path fill="none" stroke="black" d="M963.576,-295.487C1053.03,-280.837 1227.57,-253.175 1307.63,-241.004"/>
<polygon fill="black" stroke="black" points="1308.46,-244.418 1317.82,-239.461 1307.41,-237.497 1308.46,-244.418"/>
</g>
<!-- newcomms -->
<g id="node19" class="node"><title>newcomms</title>
<ellipse fill="none" stroke="black" cx="3092.44" cy="-234" rx="51.9908" ry="18"/>
<text text-anchor="middle" x="3092.44" y="-230.3" font-family="Times,serif" font-size="14.00">newcomms</text>
</g>
<!-- communityslots&#45;&gt;newcomms -->
<g id="edge43" class="edge"><title>communityslots&#45;&gt;newcomms</title>
<path fill="none" stroke="black" d="M976.146,-304.473C1227.89,-302.24 2133.84,-291.751 2879.44,-252 2931.29,-249.236 2990.11,-244.413 3032.79,-240.608"/>
<polygon fill="black" stroke="black" points="3033.35,-244.072 3043,-239.69 3032.73,-237.1 3033.35,-244.072"/>
</g>
<!-- teamres -->
<g id="node20" class="node"><title>teamres</title>
<ellipse fill="none" stroke="black" cx="1146.44" cy="-234" rx="38.1938" ry="18"/>
<text text-anchor="middle" x="1146.44" y="-230.3" font-family="Times,serif" font-size="14.00">teamres</text>
</g>
<!-- communityslots&#45;&gt;teamres -->
<g id="edge44" class="edge"><title>communityslots&#45;&gt;teamres</title>
<path fill="none" stroke="black" d="M955.444,-293.029C994.288,-282.88 1050.76,-267.534 1099.44,-252 1102.2,-251.122 1105.03,-250.185 1107.87,-249.219"/>
<polygon fill="black" stroke="black" points="1109.19,-252.465 1117.48,-245.868 1106.89,-245.856 1109.19,-252.465"/>
</g>
<!-- winorlose&#45;&gt;arclight -->
<g id="edge45" class="edge"><title>winorlose&#45;&gt;arclight</title>
<path fill="none" stroke="black" d="M605.882,-95.357C487.473,-108.973 173.113,-160.124 232.445,-324 260.805,-402.333 280.293,-426.352 352.445,-468 394.86,-492.483 530.892,-508.849 603.682,-516.331"/>
<polygon fill="black" stroke="black" points="603.642,-519.845 613.944,-517.37 604.348,-512.88 603.642,-519.845"/>
</g>
<!-- winorlose&#45;&gt;scoreboard -->
<g id="edge46" class="edge"><title>winorlose&#45;&gt;scoreboard</title>
<path fill="none" stroke="black" d="M685.945,-78.9836C697.526,-76.2151 710.442,-73.5482 722.445,-72 1092.74,-24.2344 2289.49,-19.4936 2570.83,-19.0431"/>
<polygon fill="black" stroke="black" points="2570.84,-22.5432 2580.84,-19.0283 2570.83,-15.5432 2570.84,-22.5432"/>
</g>
<!-- winorlose&#45;&gt;communityslots -->
<g id="edge47" class="edge"><title>winorlose&#45;&gt;communityslots</title>
<path fill="none" stroke="black" d="M637.859,-107.764C617.372,-139.665 580.097,-209.685 615.445,-252 642.523,-284.415 754.419,-297.043 831.816,-301.937"/>
<polygon fill="black" stroke="black" points="831.83,-305.444 842.022,-302.55 832.25,-298.457 831.83,-305.444"/>
</g>
<!-- winorlose&#45;&gt;winorlose -->
<g id="edge48" class="edge"><title>winorlose&#45;&gt;winorlose</title>
<path fill="none" stroke="black" d="M681.135,-102.985C697.82,-105.086 712.941,-100.758 712.941,-90 712.941,-81.5114 703.526,-77.0259 691.358,-76.5436"/>
<polygon fill="black" stroke="black" points="690.963,-73.058 681.135,-77.015 691.286,-80.0505 690.963,-73.058"/>
</g>
<!-- basecommands -->
<g id="node39" class="node"><title>basecommands</title>
<ellipse fill="none" stroke="black" cx="425.445" cy="-18" rx="65.7887" ry="18"/>
<text text-anchor="middle" x="425.445" y="-14.3" font-family="Times,serif" font-size="14.00">basecommands</text>
</g>
<!-- sidebar&#45;&gt;basecommands -->
<g id="edge95" class="edge"><title>sidebar&#45;&gt;basecommands</title>
<path fill="none" stroke="black" d="M425.445,-71.6966C425.445,-63.9827 425.445,-54.7125 425.445,-46.1124"/>
<polygon fill="black" stroke="black" points="428.945,-46.1043 425.445,-36.1043 421.945,-46.1044 428.945,-46.1043"/>
</g>
<!-- betterknownas&#45;&gt;betterknownas -->
<g id="edge96" class="edge"><title>betterknownas&#45;&gt;betterknownas</title>
<path fill="none" stroke="black" d="M2832.7,-247.203C2852.66,-248.737 2870.19,-244.336 2870.19,-234 2870.19,-225.441 2858.17,-220.951 2842.7,-220.532"/>
<polygon fill="black" stroke="black" points="2842.6,-217.034 2832.7,-220.797 2842.79,-224.031 2842.6,-217.034"/>
</g>
<!-- chatchannels&#45;&gt;chatchannels -->
<g id="edge97" class="edge"><title>chatchannels&#45;&gt;chatchannels</title>
<path fill="none" stroke="black" d="M1054.84,-247.137C1073.65,-248.855 1090.34,-244.477 1090.34,-234 1090.34,-225.488 1079.32,-221.001 1065.1,-220.54"/>
<polygon fill="black" stroke="black" points="1064.73,-217.05 1054.84,-220.863 1064.95,-224.046 1064.73,-217.05"/>
</g>
<!-- karma&#45;&gt;captains -->
<g id="edge98" class="edge"><title>karma&#45;&gt;captains</title>
<path fill="none" stroke="black" d="M1353.45,-252.177C1359.83,-284.159 1368.47,-353.443 1335.44,-396 1311.44,-426.931 1268.11,-439.868 1234,-445.25"/>
<polygon fill="black" stroke="black" points="1233.16,-441.833 1223.74,-446.689 1234.13,-448.765 1233.16,-441.833"/>
</g>
<!-- karma&#45;&gt;bots -->
<g id="edge99" class="edge"><title>karma&#45;&gt;bots</title>
<path fill="none" stroke="black" d="M1319.22,-226.589C1303.01,-223.243 1282.68,-219.194 1264.44,-216 1149.7,-195.898 1013.08,-176.663 949.017,-167.918"/>
<polygon fill="black" stroke="black" points="949.39,-164.436 939.009,-166.556 948.446,-171.372 949.39,-164.436"/>
</g>
<!-- karma&#45;&gt;communityslots -->
<g id="edge100" class="edge"><title>karma&#45;&gt;communityslots</title>
<path fill="none" stroke="black" d="M1318.33,-240.552C1247.46,-252.351 1073.2,-280.066 976.222,-295.018"/>
<polygon fill="black" stroke="black" points="975.575,-291.576 966.224,-296.556 976.64,-298.495 975.575,-291.576"/>
</g>
<!-- karma&#45;&gt;push -->
<g id="edge101" class="edge"><title>karma&#45;&gt;push</title>
<path fill="none" stroke="black" d="M1380.77,-228.111C1436.81,-219.261 1557.86,-199.672 1659.44,-180 1799.15,-152.944 1964.38,-115.494 2035.27,-99.1626"/>
<polygon fill="black" stroke="black" points="2036.08,-102.569 2045.03,-96.91 2034.5,-95.7483 2036.08,-102.569"/>
</g>
<!-- karma&#45;&gt;karma -->
<g id="edge102" class="edge"><title>karma&#45;&gt;karma</title>
<path fill="none" stroke="black" d="M1373.12,-246.656C1387.27,-249.469 1400.59,-245.25 1400.59,-234 1400.59,-225.562 1393.1,-221.08 1383.38,-220.553"/>
<polygon fill="black" stroke="black" points="1382.82,-217.086 1373.12,-221.344 1383.36,-224.065 1382.82,-217.086"/>
</g>
<!-- audit -->
<g id="node21" class="node"><title>audit</title>
<ellipse fill="none" stroke="black" cx="1031.44" cy="-522" rx="28.6953" ry="18"/>
<text text-anchor="middle" x="1031.44" y="-518.3" font-family="Times,serif" font-size="14.00">audit</text>
</g>
<!-- audit&#45;&gt;captains -->
<g id="edge49" class="edge"><title>audit&#45;&gt;captains</title>
<path fill="none" stroke="black" d="M1054.02,-510.671C1078.74,-499.362 1118.74,-481.059 1147.94,-467.703"/>
<polygon fill="black" stroke="black" points="1149.75,-470.723 1157.39,-463.38 1146.84,-464.358 1149.75,-470.723"/>
</g>
<!-- audit&#45;&gt;communityslots -->
<g id="edge50" class="edge"><title>audit&#45;&gt;communityslots</title>
<path fill="none" stroke="black" d="M1010.86,-508.889C980.491,-489.587 925.243,-448.598 906.445,-396 899.314,-376.048 900.394,-351.941 902.936,-333.852"/>
<polygon fill="black" stroke="black" points="906.392,-334.407 904.55,-323.974 899.483,-333.278 906.392,-334.407"/>
</g>
<!-- tf_comeback -->
<g id="node22" class="node"><title>tf_comeback</title>
<ellipse fill="none" stroke="black" cx="1031.44" cy="-450" rx="56.59" ry="18"/>
<text text-anchor="middle" x="1031.44" y="-446.3" font-family="Times,serif" font-size="14.00">tf_comeback</text>
</g>
<!-- audit&#45;&gt;tf_comeback -->
<g id="edge51" class="edge"><title>audit&#45;&gt;tf_comeback</title>
<path fill="none" stroke="black" d="M1031.44,-503.697C1031.44,-495.983 1031.44,-486.712 1031.44,-478.112"/>
<polygon fill="black" stroke="black" points="1034.94,-478.104 1031.44,-468.104 1027.94,-478.104 1034.94,-478.104"/>
</g>
<!-- client -->
<g id="node23" class="node"><title>client</title>
<ellipse fill="none" stroke="black" cx="3837.44" cy="-522" rx="30.5947" ry="18"/>
<text text-anchor="middle" x="3837.44" y="-518.3" font-family="Times,serif" font-size="14.00">client</text>
</g>
<!-- client&#45;&gt;scoreboard -->
<g id="edge52" class="edge"><title>client&#45;&gt;scoreboard</title>
<path fill="none" stroke="black" d="M3863.95,-513.025C3889.41,-505.659 3926.13,-492.085 3950.44,-468 3980.88,-437.854 3987.44,-421.838 3987.44,-379 3987.44,-379 3987.44,-379 3987.44,-161 3987.44,-27.7142 2951.96,-18.8223 2689.95,-18.8007"/>
<polygon fill="black" stroke="black" points="2689.86,-15.3007 2679.86,-18.8043 2689.86,-22.3007 2689.86,-15.3007"/>
</g>
<!-- client&#45;&gt;scoreboard -->
<g id="edge53" class="edge"><title>client&#45;&gt;scoreboard</title>
<path fill="none" stroke="black" d="M3866.31,-516.064C3895.53,-509.679 3940.29,-495.883 3968.44,-468 3998.88,-437.854 4005.44,-421.838 4005.44,-379 4005.44,-379 4005.44,-379 4005.44,-161 4005.44,-26.7521 2954.96,-18.7004 2690.37,-18.8016"/>
<polygon fill="black" stroke="black" points="2690.19,-15.3017 2680.19,-18.8097 2690.2,-22.3017 2690.19,-15.3017"/>
</g>
<!-- client&#45;&gt;scoreboard -->
<g id="edge54" class="edge"><title>client&#45;&gt;scoreboard</title>
<path fill="none" stroke="black" d="M3867.53,-518.151C3901.89,-512.954 3954.72,-499.422 3986.44,-468 4016.88,-437.854 4023.44,-421.838 4023.44,-379 4023.44,-379 4023.44,-379 4023.44,-161 4023.44,-25.716 2956.68,-18.5837 2690.09,-18.8054"/>
<polygon fill="black" stroke="black" points="2689.83,-15.3056 2679.84,-18.8179 2689.84,-22.3056 2689.83,-15.3056"/>
</g>
<!-- autoexec -->
<g id="node24" class="node"><title>autoexec</title>
<ellipse fill="none" stroke="black" cx="3563.44" cy="-450" rx="42.4939" ry="18"/>
<text text-anchor="middle" x="3563.44" y="-446.3" font-family="Times,serif" font-size="14.00">autoexec</text>
</g>
<!-- client&#45;&gt;autoexec -->
<g id="edge55" class="edge"><title>client&#45;&gt;autoexec</title>
<path fill="none" stroke="black" d="M3809.08,-515.1C3766.51,-506.058 3683.71,-487.735 3614.44,-468 3611.3,-467.105 3608.07,-466.137 3604.82,-465.133"/>
<polygon fill="black" stroke="black" points="3605.73,-461.749 3595.14,-462.047 3603.61,-468.418 3605.73,-461.749"/>
</g>
<!-- serverstart -->
<g id="node25" class="node"><title>serverstart</title>
<ellipse fill="none" stroke="black" cx="3912.44" cy="-450" rx="47.3916" ry="18"/>
<text text-anchor="middle" x="3912.44" y="-446.3" font-family="Times,serif" font-size="14.00">serverstart</text>
</g>
<!-- client&#45;&gt;serverstart -->
<g id="edge56" class="edge"><title>client&#45;&gt;serverstart</title>
<path fill="none" stroke="black" d="M3848.7,-505.116C3857.88,-495.52 3870.94,-483.159 3882.93,-472.673"/>
<polygon fill="black" stroke="black" points="3885.28,-475.266 3890.6,-466.101 3880.73,-469.951 3885.28,-475.266"/>
</g>
<!-- client&#45;&gt;serverstart -->
<g id="edge57" class="edge"><title>client&#45;&gt;serverstart</title>
<path fill="none" stroke="black" d="M3856.96,-507.834C3868.22,-498.566 3882.13,-485.899 3893.3,-474.874"/>
<polygon fill="black" stroke="black" points="3895.99,-477.137 3900.53,-467.567 3891.01,-472.214 3895.99,-477.137"/>
</g>
<!-- pregamescoreboardsort -->
<g id="node26" class="node"><title>pregamescoreboardsort</title>
<ellipse fill="none" stroke="black" cx="3716.44" cy="-450" rx="92.8835" ry="18"/>
<text text-anchor="middle" x="3716.44" y="-446.3" font-family="Times,serif" font-size="14.00">pregamescoreboardsort</text>
</g>
<!-- client&#45;&gt;pregamescoreboardsort -->
<g id="edge58" class="edge"><title>client&#45;&gt;pregamescoreboardsort</title>
<path fill="none" stroke="black" d="M3816.37,-508.807C3799.03,-498.775 3774.03,-484.316 3753.38,-472.368"/>
<polygon fill="black" stroke="black" points="3754.95,-469.23 3744.54,-467.252 3751.44,-475.289 3754.95,-469.23"/>
</g>
<!-- squadnumbers -->
<g id="node27" class="node"><title>squadnumbers</title>
<ellipse fill="none" stroke="black" cx="3177.44" cy="-450" rx="61.99" ry="18"/>
<text text-anchor="middle" x="3177.44" y="-446.3" font-family="Times,serif" font-size="14.00">squadnumbers</text>
</g>
<!-- client&#45;&gt;squadnumbers -->
<g id="edge59" class="edge"><title>client&#45;&gt;squadnumbers</title>
<path fill="none" stroke="black" d="M3806.9,-519.818C3719.4,-516.095 3460.46,-502.731 3248.44,-468 3242.97,-467.104 3237.3,-466.017 3231.65,-464.831"/>
<polygon fill="black" stroke="black" points="3232.07,-461.342 3221.56,-462.61 3230.57,-468.178 3232.07,-461.342"/>
</g>
<!-- crashreconnect -->
<g id="node28" class="node"><title>crashreconnect</title>
<ellipse fill="none" stroke="black" cx="3837.44" cy="-378" rx="63.8893" ry="18"/>
<text text-anchor="middle" x="3837.44" y="-374.3" font-family="Times,serif" font-size="14.00">crashreconnect</text>
</g>
<!-- client&#45;&gt;crashreconnect -->
<g id="edge60" class="edge"><title>client&#45;&gt;crashreconnect</title>
<path fill="none" stroke="black" d="M3837.44,-503.871C3837.44,-479.67 3837.44,-435.211 3837.44,-406.393"/>
<polygon fill="black" stroke="black" points="3840.94,-406.189 3837.44,-396.189 3833.94,-406.189 3840.94,-406.189"/>
</g>
<!-- readyroomrave -->
<g id="node29" class="node"><title>readyroomrave</title>
<ellipse fill="none" stroke="black" cx="3321.44" cy="-450" rx="64.189" ry="18"/>
<text text-anchor="middle" x="3321.44" y="-446.3" font-family="Times,serif" font-size="14.00">readyroomrave</text>
</g>
<!-- client&#45;&gt;readyroomrave -->
<g id="edge61" class="edge"><title>client&#45;&gt;readyroomrave</title>
<path fill="none" stroke="black" d="M3807.2,-518.535C3735.28,-512.422 3548.55,-495.078 3394.44,-468 3389,-467.043 3383.35,-465.935 3377.71,-464.753"/>
<polygon fill="black" stroke="black" points="3378.14,-461.265 3367.63,-462.561 3376.66,-468.106 3378.14,-461.265"/>
</g>
<!-- wraplength -->
<g id="node30" class="node"><title>wraplength</title>
<ellipse fill="none" stroke="black" cx="3453.44" cy="-450" rx="50.0912" ry="18"/>
<text text-anchor="middle" x="3453.44" y="-446.3" font-family="Times,serif" font-size="14.00">wraplength</text>
</g>
<!-- client&#45;&gt;wraplength -->
<g id="edge62" class="edge"><title>client&#45;&gt;wraplength</title>
<path fill="none" stroke="black" d="M3807.64,-517.347C3750.15,-510.033 3620.09,-492.197 3512.44,-468 3508.35,-467.08 3504.12,-466.04 3499.89,-464.94"/>
<polygon fill="black" stroke="black" points="3500.66,-461.523 3490.09,-462.29 3498.83,-468.28 3500.66,-461.523"/>
</g>
<!-- server -->
<g id="node31" class="node"><title>server</title>
<ellipse fill="none" stroke="black" cx="2786.44" cy="-522" rx="32.4942" ry="18"/>
<text text-anchor="middle" x="2786.44" y="-518.3" font-family="Times,serif" font-size="14.00">server</text>
</g>
<!-- server&#45;&gt;afkkick -->
<g id="edge63" class="edge"><title>server&#45;&gt;afkkick</title>
<path fill="none" stroke="black" d="M2753.84,-520.168C2613.45,-516.404 2064.4,-499.755 1994.44,-468 1963.84,-454.108 1937.88,-424.782 1922.04,-403.583"/>
<polygon fill="black" stroke="black" points="1924.78,-401.395 1916.08,-395.345 1919.1,-405.498 1924.78,-401.395"/>
</g>
<!-- server&#45;&gt;captains -->
<g id="edge64" class="edge"><title>server&#45;&gt;captains</title>
<path fill="none" stroke="black" d="M2754.2,-519.68C2553.64,-511.182 1478.46,-464.211 1233.92,-453.276"/>
<polygon fill="black" stroke="black" points="1234.05,-449.778 1223.9,-452.827 1233.73,-456.771 1234.05,-449.778"/>
</g>
<!-- server&#45;&gt;captains -->
<g id="edge65" class="edge"><title>server&#45;&gt;captains</title>
<path fill="none" stroke="black" d="M2754.02,-519.489C2553.02,-510.443 1478.64,-463.493 1234.01,-453.057"/>
<polygon fill="black" stroke="black" points="1234.12,-449.559 1223.98,-452.63 1233.83,-456.553 1234.12,-449.559"/>
</g>
<!-- server&#45;&gt;scoreboard -->
<g id="edge66" class="edge"><title>server&#45;&gt;scoreboard</title>
<path fill="none" stroke="black" d="M2776.95,-504.294C2769.85,-472.494 2766.74,-402.637 2731.44,-360 2706.06,-329.341 2677.31,-352.42 2649.44,-324 2619.45,-293.412 2612.44,-277.838 2612.44,-235 2612.44,-235 2612.44,-235 2612.44,-161 2612.44,-120.777 2612.44,-74.1462 2617.1,-45.613"/>
<polygon fill="black" stroke="black" points="2620.57,-46.1102 2619.13,-35.6146 2613.71,-44.7215 2620.57,-46.1102"/>
</g>
<!-- server&#45;&gt;scoreboard -->
<g id="edge67" class="edge"><title>server&#45;&gt;scoreboard</title>
<path fill="none" stroke="black" d="M2787.25,-503.797C2787.81,-471.771 2784.56,-402.417 2749.44,-360 2724.06,-329.341 2695.31,-352.42 2667.44,-324 2637.45,-293.412 2630.44,-277.838 2630.44,-235 2630.44,-235 2630.44,-235 2630.44,-161 2630.44,-120.996 2630.44,-74.6528 2630.44,-46.0798"/>
<polygon fill="black" stroke="black" points="2633.94,-46.0492 2630.44,-36.0493 2626.94,-46.0493 2633.94,-46.0492"/>
</g>
<!-- server&#45;&gt;scoreboard -->
<g id="edge68" class="edge"><title>server&#45;&gt;scoreboard</title>
<path fill="none" stroke="black" d="M2797.39,-504.785C2805.88,-473.219 2802.93,-402.858 2767.44,-360 2742.06,-329.341 2713.31,-352.42 2685.44,-324 2655.45,-293.412 2648.44,-277.838 2648.44,-235 2648.44,-235 2648.44,-235 2648.44,-161 2648.44,-120.777 2648.44,-74.1462 2643.78,-45.613"/>
<polygon fill="black" stroke="black" points="2647.18,-44.7215 2641.76,-35.6146 2640.31,-46.1102 2647.18,-44.7215"/>
</g>
<!-- server&#45;&gt;mapvote -->
<g id="edge69" class="edge"><title>server&#45;&gt;mapvote</title>
<path fill="none" stroke="black" d="M2753.75,-521.098C2635.36,-521.204 2240.84,-518.345 2129.44,-468 2087.34,-448.97 2086.6,-429.188 2054.44,-396 1949.56,-287.733 1944.19,-239.355 1827.44,-144 1813.27,-132.426 1796.29,-121.743 1782.57,-113.045"/>
<polygon fill="black" stroke="black" points="1784.4,-110.06 1774.09,-107.628 1780.63,-115.96 1784.4,-110.06"/>
</g>
<!-- server&#45;&gt;mapvote -->
<g id="edge70" class="edge"><title>server&#45;&gt;mapvote</title>
<path fill="none" stroke="black" d="M2753.87,-521.1C2639.28,-521.086 2256.84,-517.441 2147.44,-468 2105.34,-448.97 2104.6,-429.188 2072.44,-396 1967.56,-287.733 1962.19,-239.355 1845.44,-144 1829.83,-131.247 1810.8,-119.575 1795.01,-110.45"/>
<polygon fill="black" stroke="black" points="1796.56,-107.302 1786.14,-105.383 1793.08,-113.38 1796.56,-107.302"/>
</g>
<!-- server&#45;&gt;mapvote -->
<g id="edge71" class="edge"><title>server&#45;&gt;mapvote</title>
<path fill="none" stroke="black" d="M2753.92,-521.095C2641.66,-520.917 2272.59,-516.424 2165.44,-468 2123.34,-448.97 2122.6,-429.188 2090.44,-396 1985.56,-287.733 1980.19,-239.355 1863.44,-144 1845.58,-129.411 1823.25,-116.236 1804.2,-106.671"/>
<polygon fill="black" stroke="black" points="1805.67,-103.494 1795.15,-102.275 1802.61,-109.791 1805.67,-103.494"/>
</g>
<!-- server&#45;&gt;mapvote -->
<g id="edge72" class="edge"><title>server&#45;&gt;mapvote</title>
<path fill="none" stroke="black" d="M2753.81,-521.075C2642.58,-520.683 2288.09,-515.294 2183.44,-468 2141.34,-448.97 2140.6,-429.188 2108.44,-396 2003.56,-287.733 1998.19,-239.355 1881.44,-144 1860.86,-127.19 1834.35,-112.258 1810.38,-102.562"/>
<polygon fill="black" stroke="black" points="1811.58,-99.2735 1800.99,-98.9857 1809.09,-105.815 1811.58,-99.2735"/>
</g>
<!-- server&#45;&gt;push -->
<g id="edge75" class="edge"><title>server&#45;&gt;push</title>
<path fill="none" stroke="black" d="M2753.72,-520.427C2638.9,-518.082 2259.3,-507.386 2223.44,-468 2212.67,-456.168 2221.39,-447.867 2223.44,-432 2230.84,-375.019 2256.44,-364.459 2256.44,-307 2256.44,-307 2256.44,-307 2256.44,-233 2256.44,-192.553 2264.62,-173.953 2237.44,-144 2204.28,-107.452 2146.07,-95.942 2107.89,-92.4132"/>
<polygon fill="black" stroke="black" points="2107.93,-88.9057 2097.69,-91.6153 2107.38,-95.8844 2107.93,-88.9057"/>
</g>
<!-- server&#45;&gt;betterknownas -->
<g id="edge74" class="edge"><title>server&#45;&gt;betterknownas</title>
<path fill="none" stroke="black" d="M2808.08,-508.407C2839.15,-488.911 2895.12,-448.164 2917.44,-396 2923.74,-381.291 2925.78,-373.658 2917.44,-360 2899.22,-330.137 2873.32,-347.54 2847.44,-324 2827.94,-306.256 2812.37,-280.385 2802.46,-261.104"/>
<polygon fill="black" stroke="black" points="2805.51,-259.374 2797.94,-251.967 2799.24,-262.481 2805.51,-259.374"/>
</g>
<!-- server&#45;&gt;newcomms -->
<g id="edge76" class="edge"><title>server&#45;&gt;newcomms</title>
<path fill="none" stroke="black" d="M2817.39,-516.452C2869.59,-508.877 2971.42,-492.092 2998.44,-468 3030.15,-439.733 3063.47,-316.656 3081.2,-261.687"/>
<polygon fill="black" stroke="black" points="3084.61,-262.544 3084.43,-251.951 3077.96,-260.34 3084.61,-262.544"/>
</g>
<!-- server&#45;&gt;newcomms -->
<g id="edge77" class="edge"><title>server&#45;&gt;newcomms</title>
<path fill="none" stroke="black" d="M2818.24,-517.767C2874.53,-510.952 2987.73,-493.602 3016.44,-468 3048.01,-439.858 3081.17,-317.751 3090.84,-262.426"/>
<polygon fill="black" stroke="black" points="3094.33,-262.724 3092.45,-252.298 3087.42,-261.624 3094.33,-262.724"/>
</g>
<!-- server&#45;&gt;autoexec -->
<g id="edge73" class="edge"><title>server&#45;&gt;autoexec</title>
<path fill="none" stroke="black" d="M2819.03,-521.486C2921.95,-522.414 3248.79,-520.707 3512.44,-468 3516.04,-467.281 3519.74,-466.381 3523.42,-465.374"/>
<polygon fill="black" stroke="black" points="3524.45,-468.718 3533.03,-462.507 3522.45,-462.01 3524.45,-468.718"/>
</g>
<!-- server&#45;&gt;squadnumbers -->
<g id="edge79" class="edge"><title>server&#45;&gt;squadnumbers</title>
<path fill="none" stroke="black" d="M2817.39,-516.354C2873.96,-507.737 2997.77,-488.302 3101.44,-468 3107.63,-466.789 3114.08,-465.456 3120.49,-464.085"/>
<polygon fill="black" stroke="black" points="3121.47,-467.455 3130.5,-461.912 3119.98,-460.614 3121.47,-467.455"/>
</g>
<!-- server&#45;&gt;readyroomrave -->
<g id="edge83" class="edge"><title>server&#45;&gt;readyroomrave</title>
<path fill="none" stroke="black" d="M2818.55,-518.592C2893.97,-512.657 3088.15,-495.764 3248.44,-468 3253.89,-467.056 3259.55,-465.957 3265.18,-464.78"/>
<polygon fill="black" stroke="black" points="3266.23,-468.134 3275.27,-462.595 3264.75,-461.293 3266.23,-468.134"/>
</g>
<!-- server&#45;&gt;wraplength -->
<g id="edge85" class="edge"><title>server&#45;&gt;wraplength</title>
<path fill="none" stroke="black" d="M2819.04,-520.372C2910.54,-518.136 3177.25,-508.364 3394.44,-468 3398.81,-467.189 3403.31,-466.193 3407.79,-465.092"/>
<polygon fill="black" stroke="black" points="3408.73,-468.466 3417.52,-462.549 3406.95,-461.694 3408.73,-468.466"/>
</g>
<!-- recordinghelper -->
<g id="node32" class="node"><title>recordinghelper</title>
<ellipse fill="none" stroke="black" cx="2298.44" cy="-450" rx="66.0889" ry="18"/>
<text text-anchor="middle" x="2298.44" y="-446.3" font-family="Times,serif" font-size="14.00">recordinghelper</text>
</g>
<!-- server&#45;&gt;recordinghelper -->
<g id="edge78" class="edge"><title>server&#45;&gt;recordinghelper</title>
<path fill="none" stroke="black" d="M2754.77,-517.931C2685.49,-510.998 2515.44,-492.783 2374.44,-468 2368.64,-466.98 2362.62,-465.815 2356.61,-464.584"/>
<polygon fill="black" stroke="black" points="2357.06,-461.103 2346.56,-462.464 2355.62,-467.953 2357.06,-461.103"/>
</g>
<!-- speclisten -->
<g id="node33" class="node"><title>speclisten</title>
<ellipse fill="none" stroke="black" cx="277.445" cy="-306" rx="45.4919" ry="18"/>
<text text-anchor="middle" x="277.445" y="-302.3" font-family="Times,serif" font-size="14.00">speclisten</text>
</g>
<!-- server&#45;&gt;speclisten -->
<g id="edge80" class="edge"><title>server&#45;&gt;speclisten</title>
<path fill="none" stroke="black" d="M2753.88,-520.113C2524.03,-513.831 1154.84,-476.092 1135.44,-468 1113.97,-459.043 1118.85,-441.122 1097.44,-432 942.314,-365.878 487.037,-477.571 339.445,-396 314.83,-382.396 297.834,-354.374 287.945,-333.387"/>
<polygon fill="black" stroke="black" points="291.044,-331.742 283.779,-324.031 284.649,-334.59 291.044,-331.742"/>
</g>
<!-- targetedcommands -->
<g id="node34" class="node"><title>targetedcommands</title>
<ellipse fill="none" stroke="black" cx="3057.44" cy="-162" rx="77.9862" ry="18"/>
<text text-anchor="middle" x="3057.44" y="-158.3" font-family="Times,serif" font-size="14.00">targetedcommands</text>
</g>
<!-- server&#45;&gt;targetedcommands -->
<g id="edge81" class="edge"><title>server&#45;&gt;targetedcommands</title>
<path fill="none" stroke="black" d="M2814.09,-512.48C2858.88,-497.113 2946.51,-460.232 2988.44,-396 3033.41,-327.127 3003.61,-293.397 3031.44,-216 3034.67,-207.031 3038.98,-197.584 3043.17,-189.19"/>
<polygon fill="black" stroke="black" points="3046.31,-190.735 3047.77,-180.242 3040.09,-187.531 3046.31,-190.735"/>
</g>
<!-- voicecommreminder -->
<g id="node35" class="node"><title>voicecommreminder</title>
<ellipse fill="none" stroke="black" cx="3181.44" cy="-306" rx="85.2851" ry="18"/>
<text text-anchor="middle" x="3181.44" y="-302.3" font-family="Times,serif" font-size="14.00">voicecommreminder</text>
</g>
<!-- server&#45;&gt;voicecommreminder -->
<g id="edge82" class="edge"><title>server&#45;&gt;voicecommreminder</title>
<path fill="none" stroke="black" d="M2818.28,-517.856C2882.06,-511.085 3022.88,-493.638 3063.44,-468 3115.52,-435.081 3152.18,-370.235 3169.71,-333.684"/>
<polygon fill="black" stroke="black" points="3173.1,-334.717 3174.15,-324.175 3166.75,-331.758 3173.1,-334.717"/>
</g>
<!-- tgnsbadges -->
<g id="node36" class="node"><title>tgnsbadges</title>
<ellipse fill="none" stroke="black" cx="2140.44" cy="-378" rx="50.0912" ry="18"/>
<text text-anchor="middle" x="2140.44" y="-374.3" font-family="Times,serif" font-size="14.00">tgnsbadges</text>
</g>
<!-- server&#45;&gt;tgnsbadges -->
<g id="edge84" class="edge"><title>server&#45;&gt;tgnsbadges</title>
<path fill="none" stroke="black" d="M2754.09,-519.875C2636.75,-515.557 2237.99,-498.733 2190.44,-468 2168.44,-453.779 2155.18,-426.31 2147.9,-405.631"/>
<polygon fill="black" stroke="black" points="2151.22,-404.534 2144.79,-396.114 2144.57,-406.706 2151.22,-404.534"/>
</g>
<!-- speclisten&#45;&gt;sidebar -->
<g id="edge120" class="edge"><title>speclisten&#45;&gt;sidebar</title>
<path fill="none" stroke="black" d="M288.812,-288.563C314.649,-251.205 377.901,-159.745 408.422,-115.614"/>
<polygon fill="black" stroke="black" points="411.431,-117.416 414.241,-107.2 405.674,-113.434 411.431,-117.416"/>
</g>
<!-- speclisten&#45;&gt;speclisten -->
<g id="edge121" class="edge"><title>speclisten&#45;&gt;speclisten</title>
<path fill="none" stroke="black" d="M309.135,-318.985C325.82,-321.086 340.941,-316.758 340.941,-306 340.941,-297.511 331.526,-293.026 319.358,-292.544"/>
<polygon fill="black" stroke="black" points="318.963,-289.058 309.135,-293.015 319.286,-296.051 318.963,-289.058"/>
</g>
<!-- targetedcommands&#45;&gt;scoreboard -->
<g id="edge122" class="edge"><title>targetedcommands&#45;&gt;scoreboard</title>
<path fill="none" stroke="black" d="M3045.28,-144.054C3029.42,-123.376 2999.65,-89.0673 2965.44,-72 2917.84,-48.2433 2770.51,-31.6165 2687.97,-23.8915"/>
<polygon fill="black" stroke="black" points="2688.27,-20.4046 2677.99,-22.9715 2687.63,-27.375 2688.27,-20.4046"/>
</g>
<!-- targetedcommands&#45;&gt;targetedcommands -->
<g id="edge123" class="edge"><title>targetedcommands&#45;&gt;targetedcommands</title>
<path fill="none" stroke="black" d="M3110.26,-175.315C3133.47,-176.493 3153.44,-172.055 3153.44,-162 3153.44,-153.438 3138.96,-148.948 3120.33,-148.532"/>
<polygon fill="black" stroke="black" points="3120.21,-145.033 3110.26,-148.685 3120.32,-152.032 3120.21,-145.033"/>
</g>
<!-- voicecommreminder&#45;&gt;scoreboard -->
<g id="edge124" class="edge"><title>voicecommreminder&#45;&gt;scoreboard</title>
<path fill="none" stroke="black" d="M3184.49,-287.774C3189.11,-256.013 3194.27,-187.503 3162.44,-144 3106.6,-67.6547 2815,-34.4051 2688.78,-23.4338"/>
<polygon fill="black" stroke="black" points="2688.8,-19.9226 2678.54,-22.5608 2688.21,-26.8973 2688.8,-19.9226"/>
</g>
<!-- balance -->
<g id="node37" class="node"><title>balance</title>
<ellipse fill="none" stroke="black" cx="1657.44" cy="-594" rx="37.8943" ry="18"/>
<text text-anchor="middle" x="1657.44" y="-590.3" font-family="Times,serif" font-size="14.00">balance</text>
</g>
<!-- balance&#45;&gt;arclight -->
<g id="edge86" class="edge"><title>balance&#45;&gt;arclight</title>
<path fill="none" stroke="black" d="M1620.19,-591.15C1502.47,-585.195 1127.91,-565.423 818.445,-540 777.271,-536.618 730.52,-531.808 696.808,-528.167"/>
<polygon fill="black" stroke="black" points="697.105,-524.678 686.785,-527.077 696.348,-531.637 697.105,-524.678"/>
</g>
<!-- balance&#45;&gt;captains -->
<g id="edge87" class="edge"><title>balance&#45;&gt;captains</title>
<path fill="none" stroke="black" d="M1626.41,-583.683C1544.02,-558.947 1319.69,-491.602 1226.21,-463.538"/>
<polygon fill="black" stroke="black" points="1227.11,-460.154 1216.53,-460.631 1225.1,-466.859 1227.11,-460.154"/>
</g>
<!-- balance&#45;&gt;scoreboard -->
<g id="edge88" class="edge"><title>balance&#45;&gt;scoreboard</title>
<path fill="none" stroke="black" d="M1688.22,-583.341C1698.94,-580.408 1711.12,-577.553 1722.44,-576 1959.7,-543.471 3644.47,-595.437 3877.44,-540 3965.82,-518.971 4061.44,-541.842 4061.44,-451 4061.44,-451 4061.44,-451 4061.44,-161 4061.44,-131.751 4169.97,-144.507 3900.44,-72 3782.92,-40.3847 2924.93,-23.9012 2689.85,-19.9467"/>
<polygon fill="black" stroke="black" points="2689.85,-16.4461 2679.79,-19.7786 2689.73,-23.4451 2689.85,-16.4461"/>
</g>
<!-- balance&#45;&gt;communityslots -->
<g id="edge89" class="edge"><title>balance&#45;&gt;communityslots</title>
<path fill="none" stroke="black" d="M1619.97,-591.911C1465.96,-587.259 888.64,-568 862.445,-540 808.327,-482.154 861.342,-379.906 891.171,-332.479"/>
<polygon fill="black" stroke="black" points="894.147,-334.322 896.615,-324.019 888.26,-330.535 894.147,-334.322"/>
</g>
<!-- balance&#45;&gt;mapvote -->
<g id="edge90" class="edge"><title>balance&#45;&gt;mapvote</title>
<path fill="none" stroke="black" d="M1689.32,-584.268C1741.75,-567.745 1840.44,-526.602 1840.44,-451 1840.44,-451 1840.44,-451 1840.44,-233 1840.44,-186.881 1808.9,-141.245 1786.45,-114.613"/>
<polygon fill="black" stroke="black" points="1789.02,-112.236 1779.82,-106.979 1783.74,-116.825 1789.02,-112.236"/>
</g>
<!-- balance&#45;&gt;sidebar -->
<g id="edge92" class="edge"><title>balance&#45;&gt;sidebar</title>
<path fill="none" stroke="black" d="M1619.8,-591.83C1456.23,-586.635 806.335,-564.815 603.445,-540 398.914,-514.984 148.445,-657.055 148.445,-451 148.445,-451 148.445,-451 148.445,-233 148.445,-130.467 300.597,-101.918 379.37,-94.0077"/>
<polygon fill="black" stroke="black" points="379.884,-97.4751 389.516,-93.0623 379.234,-90.5053 379.884,-97.4751"/>
</g>
<!-- balance&#45;&gt;updatetoreadyroomhelper -->
<g id="edge93" class="edge"><title>balance&#45;&gt;updatetoreadyroomhelper</title>
<path fill="none" stroke="black" d="M1686.58,-582.419C1705.07,-574.007 1727.49,-560.252 1738.44,-540 1746.05,-525.926 1743.85,-519.059 1738.44,-504 1723.7,-462.923 1688.98,-425.709 1663.92,-402.771"/>
<polygon fill="black" stroke="black" points="1665.95,-399.892 1656.16,-395.839 1661.28,-405.112 1665.95,-399.892"/>
</g>
<!-- balance&#45;&gt;balance -->
<g id="edge91" class="edge"><title>balance&#45;&gt;balance</title>
<path fill="none" stroke="black" d="M1684.09,-606.807C1699.18,-609.308 1713.14,-605.039 1713.14,-594 1713.14,-585.548 1704.95,-581.065 1694.35,-580.55"/>
<polygon fill="black" stroke="black" points="1693.85,-577.074 1684.09,-581.193 1694.29,-584.06 1693.85,-577.074"/>
</g>
<!-- voterandom -->
<g id="node38" class="node"><title>voterandom</title>
<ellipse fill="none" stroke="black" cx="2051.44" cy="-522" rx="53.0913" ry="18"/>
<text text-anchor="middle" x="2051.44" y="-518.3" font-family="Times,serif" font-size="14.00">voterandom</text>
</g>
<!-- balance&#45;&gt;voterandom -->
<g id="edge94" class="edge"><title>balance&#45;&gt;voterandom</title>
<path fill="none" stroke="black" d="M1689.01,-583.937C1699.58,-581.119 1711.46,-578.183 1722.44,-576 1837.73,-553.089 1869.08,-562.489 1984.44,-540 1989.89,-538.938 1995.56,-537.705 2001.19,-536.397"/>
<polygon fill="black" stroke="black" points="2002.32,-539.725 2011.22,-533.983 2000.68,-532.92 2002.32,-539.725"/>
</g>
<!-- damagemodifier -->
<g id="node40" class="node"><title>damagemodifier</title>
<ellipse fill="none" stroke="black" cx="745.445" cy="-162" rx="69.5877" ry="18"/>
<text text-anchor="middle" x="745.445" y="-158.3" font-family="Times,serif" font-size="14.00">damagemodifier</text>
</g>
<!-- damagemodifier&#45;&gt;winorlose -->
<g id="edge103" class="edge"><title>damagemodifier&#45;&gt;winorlose</title>
<path fill="none" stroke="black" d="M723.179,-144.765C709.844,-135.041 692.747,-122.575 678.374,-112.094"/>
<polygon fill="black" stroke="black" points="680.417,-109.253 670.275,-106.189 676.293,-114.909 680.417,-109.253"/>
</g>
<!-- lapstracker -->
<g id="node41" class="node"><title>lapstracker</title>
<ellipse fill="none" stroke="black" cx="780.445" cy="-90" rx="49.2915" ry="18"/>
<text text-anchor="middle" x="780.445" y="-86.3" font-family="Times,serif" font-size="14.00">lapstracker</text>
</g>
<!-- damagemodifier&#45;&gt;lapstracker -->
<g id="edge104" class="edge"><title>damagemodifier&#45;&gt;lapstracker</title>
<path fill="none" stroke="black" d="M753.917,-144.055C758.001,-135.887 762.989,-125.912 767.532,-116.824"/>
<polygon fill="black" stroke="black" points="770.708,-118.299 772.05,-107.789 764.447,-115.168 770.708,-118.299"/>
</g>
<!-- lapstracker&#45;&gt;scoreboard -->
<g id="edge105" class="edge"><title>lapstracker&#45;&gt;scoreboard</title>
<path fill="none" stroke="black" d="M819.766,-78.831C831.779,-76.1277 845.082,-73.5357 857.445,-72 1199.92,-29.4574 2301.75,-20.7823 2570.78,-19.2817"/>
<polygon fill="black" stroke="black" points="2571.13,-22.7799 2581.11,-19.2253 2571.09,-15.78 2571.13,-22.7799"/>
</g>
<!-- lapstracker&#45;&gt;lapstracker -->
<g id="edge106" class="edge"><title>lapstracker&#45;&gt;lapstracker</title>
<path fill="none" stroke="black" d="M814.775,-103.064C832.208,-104.972 847.84,-100.617 847.84,-90 847.84,-81.5394 837.914,-77.0556 825.059,-76.5485"/>
<polygon fill="black" stroke="black" points="824.636,-73.0619 814.775,-76.9359 824.9,-80.0569 824.636,-73.0619"/>
</g>
<!-- fullgameplayed -->
<g id="node42" class="node"><title>fullgameplayed</title>
<ellipse fill="none" stroke="black" cx="738.445" cy="-378" rx="65.7887" ry="18"/>
<text text-anchor="middle" x="738.445" y="-374.3" font-family="Times,serif" font-size="14.00">fullgameplayed</text>
</g>
<!-- fullgameplayed&#45;&gt;communityslots -->
<g id="edge107" class="edge"><title>fullgameplayed&#45;&gt;communityslots</title>
<path fill="none" stroke="black" d="M773.257,-362.666C799.526,-351.849 835.76,-336.929 864.103,-325.258"/>
<polygon fill="black" stroke="black" points="865.473,-328.479 873.387,-321.435 862.808,-322.007 865.473,-328.479"/>
</g>
<!-- greetings -->
<g id="node43" class="node"><title>greetings</title>
<ellipse fill="none" stroke="black" cx="2719.44" cy="-306" rx="42.7926" ry="18"/>
<text text-anchor="middle" x="2719.44" y="-302.3" font-family="Times,serif" font-size="14.00">greetings</text>
</g>
<!-- greetings&#45;&gt;betterknownas -->
<g id="edge108" class="edge"><title>greetings&#45;&gt;betterknownas</title>
<path fill="none" stroke="black" d="M2735.56,-289.116C2744.55,-280.244 2755.95,-269.009 2766.02,-259.077"/>
<polygon fill="black" stroke="black" points="2768.74,-261.31 2773.41,-251.797 2763.83,-256.326 2768.74,-261.31"/>
</g>
<!-- groundedrookies -->
<g id="node44" class="node"><title>groundedrookies</title>
<ellipse fill="none" stroke="black" cx="1256.44" cy="-378" rx="69.5877" ry="18"/>
<text text-anchor="middle" x="1256.44" y="-374.3" font-family="Times,serif" font-size="14.00">groundedrookies</text>
</g>
<!-- groundedrookies&#45;&gt;scoreboard -->
<g id="edge109" class="edge"><title>groundedrookies&#45;&gt;scoreboard</title>
<path fill="none" stroke="black" d="M1263.04,-360.035C1266.83,-349.741 1271.42,-336.266 1274.44,-324 1284.03,-285.122 1288.44,-275.042 1288.44,-235 1288.44,-235 1288.44,-235 1288.44,-161 1288.44,-78.0697 1372.54,-94.2068 1452.44,-72 1560.51,-41.9663 2346.8,-24.514 2570.95,-20.1116"/>
<polygon fill="black" stroke="black" points="2571.27,-23.6063 2581.2,-19.9119 2571.13,-16.6076 2571.27,-23.6063"/>
</g>
<!-- groundedrookies&#45;&gt;bots -->
<g id="edge110" class="edge"><title>groundedrookies&#45;&gt;bots</title>
<path fill="none" stroke="black" d="M1258.97,-359.794C1262.74,-326.816 1265.68,-254.571 1226.44,-216 1187.84,-178.042 1024.5,-167.142 949.89,-164.116"/>
<polygon fill="black" stroke="black" points="949.677,-160.606 939.552,-163.724 949.412,-167.601 949.677,-160.606"/>
</g>
<!-- groundedrookies&#45;&gt;communityslots -->
<g id="edge111" class="edge"><title>groundedrookies&#45;&gt;communityslots</title>
<path fill="none" stroke="black" d="M1203.21,-366.292C1140.55,-353.688 1036.65,-332.789 970.425,-319.467"/>
<polygon fill="black" stroke="black" points="971.027,-316.018 960.533,-317.478 969.647,-322.881 971.027,-316.018"/>
</g>
<!-- hidefullmodlist -->
<g id="node45" class="node"><title>hidefullmodlist</title>
<ellipse fill="none" stroke="black" cx="2163.44" cy="-162" rx="64.9885" ry="18"/>
<text text-anchor="middle" x="2163.44" y="-158.3" font-family="Times,serif" font-size="14.00">hidefullmodlist</text>
</g>
<!-- hidefullmodlist&#45;&gt;push -->
<g id="edge112" class="edge"><title>hidefullmodlist&#45;&gt;push</title>
<path fill="none" stroke="black" d="M2141.87,-144.765C2128.15,-134.433 2110.31,-121.005 2095.89,-110.154"/>
<polygon fill="black" stroke="black" points="2097.95,-107.322 2087.86,-104.105 2093.74,-112.915 2097.95,-107.322"/>
</g>
<!-- mapvotehelper -->
<g id="node46" class="node"><title>mapvotehelper</title>
<ellipse fill="none" stroke="black" cx="773.445" cy="-594" rx="63.8893" ry="18"/>
<text text-anchor="middle" x="773.445" y="-590.3" font-family="Times,serif" font-size="14.00">mapvotehelper</text>
</g>
<!-- mapvotehelper&#45;&gt;arclight -->
<g id="edge113" class="edge"><title>mapvotehelper&#45;&gt;arclight</title>
<path fill="none" stroke="black" d="M746.452,-577.638C727.564,-566.889 702.255,-552.486 682.365,-541.166"/>
<polygon fill="black" stroke="black" points="684.072,-538.111 673.65,-536.206 680.61,-544.194 684.072,-538.111"/>
</g>
<!-- mapvotehelper&#45;&gt;captains -->
<g id="edge114" class="edge"><title>mapvotehelper&#45;&gt;captains</title>
<path fill="none" stroke="black" d="M836.055,-590.449C897.77,-585.975 993.58,-573.688 1069.44,-540 1105.41,-524.031 1140.21,-494.517 1161.93,-473.87"/>
<polygon fill="black" stroke="black" points="1164.57,-476.18 1169.32,-466.707 1159.7,-471.154 1164.57,-476.18"/>
</g>
<!-- mapvotehelper&#45;&gt;mapvote -->
<g id="edge115" class="edge"><title>mapvotehelper&#45;&gt;mapvote</title>
<path fill="none" stroke="black" d="M833.054,-587.65C901.41,-580.606 1016.41,-565.962 1112.44,-540 1281.99,-494.164 1360.16,-523.979 1480.44,-396 1561.01,-310.275 1475.98,-224.841 1561.44,-144 1602.07,-105.569 1666.99,-94.1722 1712.45,-91.2054"/>
<polygon fill="black" stroke="black" points="1712.89,-94.6865 1722.69,-90.6568 1712.52,-87.6965 1712.89,-94.6865"/>
</g>
<!-- infestedhelper -->
<g id="node47" class="node"><title>infestedhelper</title>
<ellipse fill="none" stroke="black" cx="60.4446" cy="-522" rx="60.3893" ry="18"/>
<text text-anchor="middle" x="60.4446" y="-518.3" font-family="Times,serif" font-size="14.00">infestedhelper</text>
</g>
<!-- mapvotehelper&#45;&gt;infestedhelper -->
<g id="edge116" class="edge"><title>mapvotehelper&#45;&gt;infestedhelper</title>
<path fill="none" stroke="black" d="M710.509,-590.767C595.515,-586.024 343.987,-572.588 134.445,-540 128.119,-539.016 121.531,-537.794 115.007,-536.459"/>
<polygon fill="black" stroke="black" points="115.365,-532.957 104.854,-534.287 113.901,-539.802 115.365,-532.957"/>
</g>
<!-- permissions -->
<g id="node48" class="node"><title>permissions</title>
<ellipse fill="none" stroke="black" cx="2375.44" cy="-378" rx="53.0913" ry="18"/>
<text text-anchor="middle" x="2375.44" y="-374.3" font-family="Times,serif" font-size="14.00">permissions</text>
</g>
<!-- permissions&#45;&gt;permissions -->
<g id="edge117" class="edge"><title>permissions&#45;&gt;permissions</title>
<path fill="none" stroke="black" d="M2412.13,-391.101C2430.42,-392.914 2446.74,-388.547 2446.74,-378 2446.74,-369.513 2436.17,-365.028 2422.51,-364.544"/>
<polygon fill="black" stroke="black" points="2422,-361.059 2412.13,-364.899 2422.24,-368.055 2422,-361.059"/>
</g>
<!-- printablenames -->
<g id="node49" class="node"><title>printablenames</title>
<ellipse fill="none" stroke="black" cx="1796.44" cy="-594" rx="64.9885" ry="18"/>
<text text-anchor="middle" x="1796.44" y="-590.3" font-family="Times,serif" font-size="14.00">printablenames</text>
</g>
<!-- printablenames&#45;&gt;printablenames -->
<g id="edge118" class="edge"><title>printablenames&#45;&gt;printablenames</title>
<path fill="none" stroke="black" d="M1840.85,-607.233C1861.44,-608.677 1879.44,-604.266 1879.44,-594 1879.44,-585.499 1867.1,-581.013 1851.16,-580.541"/>
<polygon fill="black" stroke="black" points="1850.77,-577.049 1840.85,-580.767 1850.92,-584.047 1850.77,-577.049"/>
</g>
<!-- scoreboardicons -->
<g id="node50" class="node"><title>scoreboardicons</title>
<ellipse fill="none" stroke="black" cx="1965.44" cy="-594" rx="67.6881" ry="18"/>
<text text-anchor="middle" x="1965.44" y="-590.3" font-family="Times,serif" font-size="14.00">scoreboardicons</text>
</g>
<!-- scoreboardicons&#45;&gt;scoreboardicons -->
<g id="edge119" class="edge"><title>scoreboardicons&#45;&gt;scoreboardicons</title>
<path fill="none" stroke="black" d="M2011.67,-607.262C2032.73,-608.616 2051.04,-604.195 2051.04,-594 2051.04,-585.477 2038.25,-580.99 2021.75,-580.538"/>
<polygon fill="black" stroke="black" points="2021.6,-577.04 2011.67,-580.738 2021.74,-584.039 2021.6,-577.04"/>
</g>
<!-- siegehelper -->
<g id="node51" class="node"><title>siegehelper</title>
<ellipse fill="none" stroke="black" cx="399.445" cy="-378" rx="50.8918" ry="18"/>
<text text-anchor="middle" x="399.445" y="-374.3" font-family="Times,serif" font-size="14.00">siegehelper</text>
</g>
<!-- siegehelper&#45;&gt;communityslots -->
<g id="edge125" class="edge"><title>siegehelper&#45;&gt;communityslots</title>
<path fill="none" stroke="black" d="M437.742,-366.054C446.468,-363.82 455.735,-361.651 464.445,-360 593.389,-335.561 745.657,-320.287 834.211,-312.731"/>
<polygon fill="black" stroke="black" points="834.754,-316.197 844.425,-311.869 834.166,-309.222 834.754,-316.197"/>
</g>
<!-- siegehelper&#45;&gt;sidebar -->
<g id="edge126" class="edge"><title>siegehelper&#45;&gt;sidebar</title>
<path fill="none" stroke="black" d="M400.993,-359.966C405.336,-312.192 417.661,-176.623 422.966,-118.266"/>
<polygon fill="black" stroke="black" points="426.452,-118.582 423.871,-108.306 419.48,-117.948 426.452,-118.582"/>
</g>
<!-- specbets -->
<g id="node52" class="node"><title>specbets</title>
<ellipse fill="none" stroke="black" cx="1610.44" cy="-162" rx="40.0939" ry="18"/>
<text text-anchor="middle" x="1610.44" y="-158.3" font-family="Times,serif" font-size="14.00">specbets</text>
</g>
<!-- specbets&#45;&gt;mapvote -->
<g id="edge127" class="edge"><title>specbets&#45;&gt;mapvote</title>
<path fill="none" stroke="black" d="M1637.62,-148.647C1662.57,-137.306 1699.75,-120.407 1727.41,-107.834"/>
<polygon fill="black" stroke="black" points="1729.11,-110.908 1736.76,-103.584 1726.21,-104.536 1729.11,-110.908"/>
</g>
<!-- stagedteamjoins -->
<g id="node53" class="node"><title>stagedteamjoins</title>
<ellipse fill="none" stroke="black" cx="1661.44" cy="-522" rx="67.6881" ry="18"/>
<text text-anchor="middle" x="1661.44" y="-518.3" font-family="Times,serif" font-size="14.00">stagedteamjoins</text>
</g>
<!-- stagedteamjoins&#45;&gt;captains -->
<g id="edge128" class="edge"><title>stagedteamjoins&#45;&gt;captains</title>
<path fill="none" stroke="black" d="M1607.43,-511.074C1593.75,-508.659 1579.07,-506.153 1565.44,-504 1445.83,-485.096 1304.51,-466.381 1232.25,-457.072"/>
<polygon fill="black" stroke="black" points="1232.46,-453.571 1222.1,-455.768 1231.57,-460.514 1232.46,-453.571"/>
</g>
<!-- stagedteamjoins&#45;&gt;mapvote -->
<g id="edge129" class="edge"><title>stagedteamjoins&#45;&gt;mapvote</title>
<path fill="none" stroke="black" d="M1675.99,-504.029C1694.89,-481.07 1727.58,-438.126 1745.44,-396 1761.23,-358.762 1764.44,-347.447 1764.44,-307 1764.44,-307 1764.44,-307 1764.44,-233 1764.44,-192.996 1764.44,-146.653 1764.44,-118.08"/>
<polygon fill="black" stroke="black" points="1767.94,-118.049 1764.44,-108.049 1760.94,-118.049 1767.94,-118.049"/>
</g>
<!-- taglines -->
<g id="node54" class="node"><title>taglines</title>
<ellipse fill="none" stroke="black" cx="2870.44" cy="-378" rx="38.1938" ry="18"/>
<text text-anchor="middle" x="2870.44" y="-374.3" font-family="Times,serif" font-size="14.00">taglines</text>
</g>
<!-- taglines&#45;&gt;betterknownas -->
<g id="edge130" class="edge"><title>taglines&#45;&gt;betterknownas</title>
<path fill="none" stroke="black" d="M2850.4,-362.639C2838.33,-352.995 2823.57,-339.287 2814.44,-324 2803.13,-305.047 2797.04,-280.681 2793.83,-262.237"/>
<polygon fill="black" stroke="black" points="2797.26,-261.488 2792.26,-252.148 2790.34,-262.568 2797.26,-261.488"/>
</g>
<!-- td -->
<g id="node55" class="node"><title>td</title>
<ellipse fill="none" stroke="black" cx="2096.44" cy="-594" rx="27" ry="18"/>
<text text-anchor="middle" x="2096.44" y="-590.3" font-family="Times,serif" font-size="14.00">td</text>
</g>
<!-- td&#45;&gt;td -->
<g id="edge131" class="edge"><title>td&#45;&gt;td</title>
<path fill="none" stroke="black" d="M2116.34,-606.432C2129.13,-609.675 2141.44,-605.531 2141.44,-594 2141.44,-585.622 2134.95,-581.143 2126.48,-580.564"/>
<polygon fill="black" stroke="black" points="2125.95,-577.1 2116.34,-581.568 2126.64,-584.066 2125.95,-577.1"/>
</g>
<!-- teamroles -->
<g id="node56" class="node"><title>teamroles</title>
<ellipse fill="none" stroke="black" cx="2901.44" cy="-306" rx="45.4919" ry="18"/>
<text text-anchor="middle" x="2901.44" y="-302.3" font-family="Times,serif" font-size="14.00">teamroles</text>
</g>
<!-- teamroles&#45;&gt;scoreboard -->
<g id="edge132" class="edge"><title>teamroles&#45;&gt;scoreboard</title>
<path fill="none" stroke="black" d="M2900.5,-287.972C2898.75,-269.043 2893.74,-238.217 2879.44,-216 2825.3,-131.873 2722.77,-68.0115 2667.68,-37.967"/>
<polygon fill="black" stroke="black" points="2669.08,-34.7457 2658.61,-33.0948 2665.76,-40.9117 2669.08,-34.7457"/>
</g>
<!-- teamroles&#45;&gt;betterknownas -->
<g id="edge133" class="edge"><title>teamroles&#45;&gt;betterknownas</title>
<path fill="none" stroke="black" d="M2878.18,-290.326C2862.48,-280.425 2841.51,-267.204 2824.01,-256.169"/>
<polygon fill="black" stroke="black" points="2825.55,-253.001 2815.22,-250.627 2821.82,-258.922 2825.55,-253.001"/>
</g>
<!-- teamswitch -->
<g id="node57" class="node"><title>teamswitch</title>
<ellipse fill="none" stroke="black" cx="922.445" cy="-522" rx="51.1914" ry="18"/>
<text text-anchor="middle" x="922.445" y="-518.3" font-family="Times,serif" font-size="14.00">teamswitch</text>
</g>
<!-- teamswitch&#45;&gt;captains -->
<g id="edge134" class="edge"><title>teamswitch&#45;&gt;captains</title>
<path fill="none" stroke="black" d="M961.952,-510.445C1010.23,-497.545 1091.63,-475.798 1141.44,-462.489"/>
<polygon fill="black" stroke="black" points="1142.51,-465.826 1151.27,-459.864 1140.7,-459.064 1142.51,-465.826"/>
</g>
<!-- teamswitch&#45;&gt;timedstart -->
<g id="edge135" class="edge"><title>teamswitch&#45;&gt;timedstart</title>
<path fill="none" stroke="black" d="M888.957,-508.148C821.114,-482.111 667.63,-423.206 593.73,-394.845"/>
<polygon fill="black" stroke="black" points="594.863,-391.531 584.273,-391.215 592.355,-398.066 594.863,-391.531"/>
</g>
<!-- TGNSClientKicker -->
<g id="node58" class="node"><title>TGNSClientKicker</title>
<ellipse fill="none" stroke="black" cx="2661.44" cy="-450" rx="79.0865" ry="18"/>
<text text-anchor="middle" x="2661.44" y="-446.3" font-family="Times,serif" font-size="14.00">TGNSClientKicker</text>
</g>
<!-- ban -->
<g id="node59" class="node"><title>ban</title>
<ellipse fill="none" stroke="black" cx="2713.44" cy="-378" rx="27" ry="18"/>
<text text-anchor="middle" x="2713.44" y="-374.3" font-family="Times,serif" font-size="14.00">ban</text>
</g>
<!-- TGNSClientKicker&#45;&gt;ban -->
<g id="edge136" class="edge"><title>TGNSClientKicker&#45;&gt;ban</title>
<path fill="none" stroke="black" d="M2674.03,-432.055C2680.63,-423.167 2688.83,-412.14 2696.03,-402.446"/>
<polygon fill="black" stroke="black" points="2698.88,-404.471 2702.04,-394.356 2693.26,-400.297 2698.88,-404.471"/>
</g>
<!-- TGNSCommonServer -->
<g id="node60" class="node"><title>TGNSCommonServer</title>
<ellipse fill="none" stroke="black" cx="2473.44" cy="-450" rx="90.1842" ry="18"/>
<text text-anchor="middle" x="2473.44" y="-446.3" font-family="Times,serif" font-size="14.00">TGNSCommonServer</text>
</g>
<!-- TGNSCommonServer&#45;&gt;afkkick -->
<g id="edge137" class="edge"><title>TGNSCommonServer&#45;&gt;afkkick</title>
<path fill="none" stroke="black" d="M2408.44,-437.41C2396.8,-435.489 2384.78,-433.604 2373.44,-432 2219.36,-410.196 2035.73,-391.52 1951.64,-383.371"/>
<polygon fill="black" stroke="black" points="1951.93,-379.883 1941.64,-382.407 1951.26,-386.851 1951.93,-379.883"/>
</g>
<!-- TGNSCommonServer&#45;&gt;scoreboard -->
<g id="edge138" class="edge"><title>TGNSCommonServer&#45;&gt;scoreboard</title>
<path fill="none" stroke="black" d="M2538.17,-437.373C2549.89,-435.446 2562.02,-433.568 2573.44,-432 2649.59,-421.554 2853.78,-439.064 2917.44,-396 2947.42,-375.727 2946.74,-359.122 2955.44,-324 2989.23,-187.587 2885.21,-143.872 2764.44,-72 2737.09,-55.72 2703.82,-42.5299 2677.28,-33.3801"/>
<polygon fill="black" stroke="black" points="2678.06,-29.9485 2667.46,-30.0731 2675.82,-36.5823 2678.06,-29.9485"/>
</g>
<!-- TGNSCommonServer&#45;&gt;mapvote -->
<g id="edge139" class="edge"><title>TGNSCommonServer&#45;&gt;mapvote</title>
<path fill="none" stroke="black" d="M2419.14,-435.6C2387.35,-426.645 2346.98,-413.323 2313.44,-396 2229.41,-352.596 2055.91,-184.52 1970.44,-144 1919.63,-119.907 1856.37,-105.723 1813.46,-98.1849"/>
<polygon fill="black" stroke="black" points="1813.99,-94.7254 1803.55,-96.4983 1812.82,-101.626 1813.99,-94.7254"/>
</g>
<!-- TGNSCommonServer&#45;&gt;karma -->
<g id="edge140" class="edge"><title>TGNSCommonServer&#45;&gt;karma</title>
<path fill="none" stroke="black" d="M2417.01,-435.881C2378.16,-426.273 2325.6,-412.132 2280.44,-396 2243.35,-382.747 2237.28,-370.967 2199.44,-360 1898.46,-272.761 1519.01,-244.523 1392.6,-237.201"/>
<polygon fill="black" stroke="black" points="1392.73,-233.703 1382.55,-236.632 1392.34,-240.692 1392.73,-233.703"/>
</g>
<!-- TGNSCommonServer&#45;&gt;permissions -->
<g id="edge141" class="edge"><title>TGNSCommonServer&#45;&gt;permissions</title>
<path fill="none" stroke="black" d="M2450.22,-432.411C2436.78,-422.813 2419.73,-410.632 2405.3,-400.328"/>
<polygon fill="black" stroke="black" points="2407.33,-397.475 2397.16,-394.511 2403.26,-403.171 2407.33,-397.475"/>
</g>
<!-- TGNSCommonServer&#45;&gt;ban -->
<g id="edge142" class="edge"><title>TGNSCommonServer&#45;&gt;ban</title>
<path fill="none" stroke="black" d="M2530.66,-435.901C2570.75,-426.202 2625.38,-411.947 2672.44,-396 2675.58,-394.937 2678.82,-393.751 2682.04,-392.514"/>
<polygon fill="black" stroke="black" points="2683.54,-395.686 2691.52,-388.72 2680.94,-389.188 2683.54,-395.686"/>
</g>
<!-- improvedafkhandler -->
<g id="node61" class="node"><title>improvedafkhandler</title>
<ellipse fill="none" stroke="black" cx="2547.44" cy="-378" rx="82.5854" ry="18"/>
<text text-anchor="middle" x="2547.44" y="-374.3" font-family="Times,serif" font-size="14.00">improvedafkhandler</text>
</g>
<!-- TGNSCommonServer&#45;&gt;improvedafkhandler -->
<g id="edge143" class="edge"><title>TGNSCommonServer&#45;&gt;improvedafkhandler</title>
<path fill="none" stroke="black" d="M2491.36,-432.055C2500.63,-423.285 2512.1,-412.432 2522.25,-402.831"/>
<polygon fill="black" stroke="black" points="2524.84,-405.204 2529.7,-395.789 2520.03,-400.118 2524.84,-405.204"/>
</g>
<!-- tempgroups -->
<g id="node62" class="node"><title>tempgroups</title>
<ellipse fill="none" stroke="black" cx="2531.44" cy="-306" rx="52.7911" ry="18"/>
<text text-anchor="middle" x="2531.44" y="-302.3" font-family="Times,serif" font-size="14.00">tempgroups</text>
</g>
<!-- TGNSCommonServer&#45;&gt;tempgroups -->
<g id="edge144" class="edge"><title>TGNSCommonServer&#45;&gt;tempgroups</title>
<path fill="none" stroke="black" d="M2536.23,-436.95C2577.78,-427.552 2626.86,-413.223 2639.44,-396 2648.88,-383.08 2647.91,-373.579 2639.44,-360 2627.14,-340.247 2605.08,-327.649 2584.09,-319.719"/>
<polygon fill="black" stroke="black" points="2585.16,-316.384 2574.57,-316.395 2582.85,-322.993 2585.16,-316.384"/>
</g>
<!-- TGNSConnectedTimesTracker -->
<g id="node63" class="node"><title>TGNSConnectedTimesTracker</title>
<ellipse fill="none" stroke="black" cx="745.445" cy="-234" rx="120.779" ry="18"/>
<text text-anchor="middle" x="745.445" y="-230.3" font-family="Times,serif" font-size="14.00">TGNSConnectedTimesTracker</text>
</g>
<!-- TGNSConnectedTimesTracker&#45;&gt;bots -->
<g id="edge145" class="edge"><title>TGNSConnectedTimesTracker&#45;&gt;bots</title>
<path fill="none" stroke="black" d="M784.178,-216.765C813.355,-204.535 852.886,-187.965 880.318,-176.466"/>
<polygon fill="black" stroke="black" points="881.966,-179.571 889.835,-172.477 879.26,-173.115 881.966,-179.571"/>
</g>
</g>
</svg>
