<?xml version="1.0" encoding="UTF-8" standalone="no"?>
<!DOCTYPE svg PUBLIC "-//W3C//DTD SVG 1.1//EN"
 "http://www.w3.org/Graphics/SVG/1.1/DTD/svg11.dtd">
<!-- Generated by graphviz version 2.38.0 (20140413.2041)
 -->
<!-- Title: graphname Pages: 1 -->
<svg width="3635pt" height="692pt"
 viewBox="0.00 0.00 3634.89 692.00" xmlns="http://www.w3.org/2000/svg" xmlns:xlink="http://www.w3.org/1999/xlink">
<g id="graph0" class="graph" transform="scale(1 1) rotate(0) translate(4 688)">
<title>graphname</title>
<polygon fill="white" stroke="none" points="-4,4 -4,-688 3630.89,-688 3630.89,4 -4,4"/>
<!-- afkkick -->
<g id="node1" class="node"><title>afkkick</title>
<ellipse fill="none" stroke="black" cx="910.645" cy="-666" rx="37.0935" ry="18"/>
<text text-anchor="middle" x="910.645" y="-662.3" font-family="Times,serif" font-size="14.00">afkkick</text>
</g>
<!-- afkkickhelper -->
<g id="node2" class="node"><title>afkkickhelper</title>
<ellipse fill="none" stroke="black" cx="785.645" cy="-594" rx="59.2899" ry="18"/>
<text text-anchor="middle" x="785.645" y="-590.3" font-family="Times,serif" font-size="14.00">afkkickhelper</text>
</g>
<!-- afkkick&#45;&gt;afkkickhelper -->
<g id="edge1" class="edge"><title>afkkick&#45;&gt;afkkickhelper</title>
<path fill="none" stroke="black" d="M887.134,-651.834C868.652,-641.484 842.598,-626.893 821.515,-615.087"/>
<polygon fill="black" stroke="black" points="822.959,-611.884 812.523,-610.052 819.538,-617.992 822.959,-611.884"/>
</g>
<!-- captains -->
<g id="node3" class="node"><title>captains</title>
<ellipse fill="none" stroke="black" cx="1074.65" cy="-450" rx="39.7935" ry="18"/>
<text text-anchor="middle" x="1074.65" y="-446.3" font-family="Times,serif" font-size="14.00">captains</text>
</g>
<!-- afkkick&#45;&gt;captains -->
<g id="edge2" class="edge"><title>afkkick&#45;&gt;captains</title>
<path fill="none" stroke="black" d="M940.599,-655.264C962.315,-646.853 991.023,-632.747 1009.65,-612 1028.08,-591.467 1053.39,-517.971 1066.31,-477.759"/>
<polygon fill="black" stroke="black" points="1069.7,-478.662 1069.39,-468.071 1063.03,-476.54 1069.7,-478.662"/>
</g>
<!-- server -->
<g id="node4" class="node"><title>server</title>
<ellipse fill="none" stroke="black" cx="2108.65" cy="-378" rx="32.4942" ry="18"/>
<text text-anchor="middle" x="2108.65" y="-374.3" font-family="Times,serif" font-size="14.00">server</text>
</g>
<!-- afkkick&#45;&gt;server -->
<g id="edge3" class="edge"><title>afkkick&#45;&gt;server</title>
<path fill="none" stroke="black" d="M947.799,-664.625C1112.01,-662.355 1772.1,-646.639 1943.65,-540 1996.71,-507.013 1987.74,-474.39 2033.65,-432 2047.52,-419.191 2064.6,-406.891 2078.96,-397.37"/>
<polygon fill="black" stroke="black" points="2081.02,-400.207 2087.5,-391.822 2077.21,-394.338 2081.02,-400.207"/>
</g>
<!-- TGNSCommonServer -->
<g id="node5" class="node"><title>TGNSCommonServer</title>
<ellipse fill="none" stroke="black" cx="1854.65" cy="-18" rx="90.1842" ry="18"/>
<text text-anchor="middle" x="1854.65" y="-14.3" font-family="Times,serif" font-size="14.00">TGNSCommonServer</text>
</g>
<!-- afkkick&#45;&gt;TGNSCommonServer -->
<g id="edge4" class="edge"><title>afkkick&#45;&gt;TGNSCommonServer</title>
<path fill="none" stroke="black" d="M873.315,-664.43C732.256,-661.989 236.776,-650.709 178.645,-612 141.752,-587.433 133.645,-567.324 133.645,-523 133.645,-523 133.645,-523 133.645,-161 133.645,-113.295 151.89,-95.07 193.645,-72 262.082,-34.1887 1405.86,-22.4089 1754.55,-19.6878"/>
<polygon fill="black" stroke="black" points="1754.66,-23.1872 1764.63,-19.61 1754.6,-16.1874 1754.66,-23.1872"/>
</g>
<!-- timedstart -->
<g id="node6" class="node"><title>timedstart</title>
<ellipse fill="none" stroke="black" cx="778.645" cy="-522" rx="46.2923" ry="18"/>
<text text-anchor="middle" x="778.645" y="-518.3" font-family="Times,serif" font-size="14.00">timedstart</text>
</g>
<!-- afkkickhelper&#45;&gt;timedstart -->
<g id="edge5" class="edge"><title>afkkickhelper&#45;&gt;timedstart</title>
<path fill="none" stroke="black" d="M778.073,-576.055C776.484,-568.346 775.309,-559.027 774.777,-550.364"/>
<polygon fill="black" stroke="black" points="778.272,-550.161 774.46,-540.275 771.275,-550.38 778.272,-550.161"/>
</g>
<!-- captains&#45;&gt;afkkickhelper -->
<g id="edge12" class="edge"><title>captains&#45;&gt;afkkickhelper</title>
<path fill="none" stroke="black" d="M1059.56,-466.871C1037.6,-489.662 997.498,-530.02 979.645,-540 967.334,-546.882 893.273,-566.192 840.32,-579.499"/>
<polygon fill="black" stroke="black" points="839.217,-576.167 830.367,-581.992 840.918,-582.957 839.217,-576.167"/>
</g>
<!-- captains&#45;&gt;captains -->
<g id="edge14" class="edge"><title>captains&#45;&gt;captains</title>
<path fill="none" stroke="black" d="M1102.52,-462.854C1118.02,-465.253 1132.29,-460.969 1132.29,-450 1132.29,-441.516 1123.75,-437.031 1112.72,-436.544"/>
<polygon fill="black" stroke="black" points="1112.3,-433.063 1102.52,-437.146 1112.71,-440.051 1112.3,-433.063"/>
</g>
<!-- captains&#45;&gt;server -->
<g id="edge19" class="edge"><title>captains&#45;&gt;server</title>
<path fill="none" stroke="black" d="M1113.59,-446.169C1275.95,-434.826 1897.68,-392.737 2066.3,-381.677"/>
<polygon fill="black" stroke="black" points="2066.77,-385.154 2076.52,-381.009 2066.31,-378.169 2066.77,-385.154"/>
</g>
<!-- captains&#45;&gt;server -->
<g id="edge20" class="edge"><title>captains&#45;&gt;server</title>
<path fill="none" stroke="black" d="M1113.84,-446.529C1276.6,-435.87 1897.7,-393.829 2066.27,-382.07"/>
<polygon fill="black" stroke="black" points="2066.76,-385.545 2076.49,-381.356 2066.27,-378.562 2066.76,-385.545"/>
</g>
<!-- captains&#45;&gt;timedstart -->
<g id="edge15" class="edge"><title>captains&#45;&gt;timedstart</title>
<path fill="none" stroke="black" d="M1041.47,-459.956C989.526,-472.863 889.036,-496.652 828.42,-510.412"/>
<polygon fill="black" stroke="black" points="827.3,-507.077 818.317,-512.695 828.843,-513.904 827.3,-507.077"/>
</g>
<!-- arclight -->
<g id="node7" class="node"><title>arclight</title>
<ellipse fill="none" stroke="black" cx="904.645" cy="-378" rx="37.8943" ry="18"/>
<text text-anchor="middle" x="904.645" y="-374.3" font-family="Times,serif" font-size="14.00">arclight</text>
</g>
<!-- captains&#45;&gt;arclight -->
<g id="edge13" class="edge"><title>captains&#45;&gt;arclight</title>
<path fill="none" stroke="black" d="M1046.19,-437.284C1017.5,-425.468 973.063,-407.172 941.646,-394.235"/>
<polygon fill="black" stroke="black" points="942.925,-390.977 932.345,-390.406 940.259,-397.45 942.925,-390.977"/>
</g>
<!-- balance -->
<g id="node9" class="node"><title>balance</title>
<ellipse fill="none" stroke="black" cx="1642.65" cy="-90" rx="37.8943" ry="18"/>
<text text-anchor="middle" x="1642.65" y="-86.3" font-family="Times,serif" font-size="14.00">balance</text>
</g>
<!-- captains&#45;&gt;balance -->
<g id="edge21" class="edge"><title>captains&#45;&gt;balance</title>
<path fill="none" stroke="black" d="M1113.11,-445.029C1158.16,-439.19 1234.06,-425.592 1292.65,-396 1314.89,-384.762 1315.06,-374.049 1335.65,-360 1473.32,-266.05 1579.65,-323.379 1664.65,-180 1676.24,-160.44 1668.04,-134.994 1658.53,-116.323"/>
<polygon fill="black" stroke="black" points="1661.57,-114.582 1653.69,-107.501 1655.43,-117.951 1661.57,-114.582"/>
</g>
<!-- mapvotehelper -->
<g id="node10" class="node"><title>mapvotehelper</title>
<ellipse fill="none" stroke="black" cx="1239.65" cy="-306" rx="63.8893" ry="18"/>
<text text-anchor="middle" x="1239.65" y="-302.3" font-family="Times,serif" font-size="14.00">mapvotehelper</text>
</g>
<!-- captains&#45;&gt;mapvotehelper -->
<g id="edge23" class="edge"><title>captains&#45;&gt;mapvotehelper</title>
<path fill="none" stroke="black" d="M1079.78,-432.15C1086.52,-412.52 1100.11,-380.205 1121.65,-360 1139.69,-343.068 1164.07,-330.892 1185.98,-322.516"/>
<polygon fill="black" stroke="black" points="1187.31,-325.754 1195.51,-319.044 1184.92,-319.176 1187.31,-325.754"/>
</g>
<!-- bots -->
<g id="node11" class="node"><title>bots</title>
<ellipse fill="none" stroke="black" cx="507.645" cy="-234" rx="27" ry="18"/>
<text text-anchor="middle" x="507.645" y="-230.3" font-family="Times,serif" font-size="14.00">bots</text>
</g>
<!-- captains&#45;&gt;bots -->
<g id="edge16" class="edge"><title>captains&#45;&gt;bots</title>
<path fill="none" stroke="black" d="M1041.28,-440.115C1031.14,-437.456 1019.94,-434.566 1009.65,-432 942.28,-415.216 919.705,-427.118 857.645,-396 835.365,-384.828 833.933,-375.786 814.645,-360 794.825,-343.778 788.959,-340.822 769.645,-324 752.102,-308.72 752.113,-299.059 731.645,-288 699.358,-270.556 598.103,-250.862 543.459,-241.125"/>
<polygon fill="black" stroke="black" points="543.961,-237.66 533.506,-239.37 542.746,-244.553 543.961,-237.66"/>
</g>
<!-- communityslots -->
<g id="node12" class="node"><title>communityslots</title>
<ellipse fill="none" stroke="black" cx="997.645" cy="-162" rx="67.6881" ry="18"/>
<text text-anchor="middle" x="997.645" y="-158.3" font-family="Times,serif" font-size="14.00">communityslots</text>
</g>
<!-- captains&#45;&gt;communityslots -->
<g id="edge17" class="edge"><title>captains&#45;&gt;communityslots</title>
<path fill="none" stroke="black" d="M1075.19,-431.946C1076.42,-413.267 1080.35,-382.92 1092.65,-360 1096.66,-352.523 1197.4,-259.839 1200.65,-252 1206.77,-237.218 1210.43,-228.662 1200.65,-216 1184.22,-194.742 1119.34,-180.386 1067.29,-172.036"/>
<polygon fill="black" stroke="black" points="1067.82,-168.576 1057.4,-170.496 1066.74,-175.493 1067.82,-168.576"/>
</g>
<!-- audit -->
<g id="node13" class="node"><title>audit</title>
<ellipse fill="none" stroke="black" cx="863.645" cy="-90" rx="28.6953" ry="18"/>
<text text-anchor="middle" x="863.645" y="-86.3" font-family="Times,serif" font-size="14.00">audit</text>
</g>
<!-- captains&#45;&gt;audit -->
<g id="edge18" class="edge"><title>captains&#45;&gt;audit</title>
<path fill="none" stroke="black" d="M1068.67,-432.146C1056.38,-399.779 1025.28,-328.542 976.645,-288 942.282,-259.355 910.119,-287.307 882.645,-252 852.571,-213.35 854.601,-152.862 858.988,-118.077"/>
<polygon fill="black" stroke="black" points="862.455,-118.552 860.392,-108.16 855.524,-117.57 862.455,-118.552"/>
</g>
<!-- karma -->
<g id="node14" class="node"><title>karma</title>
<ellipse fill="none" stroke="black" cx="1209.65" cy="-90" rx="33.2948" ry="18"/>
<text text-anchor="middle" x="1209.65" y="-86.3" font-family="Times,serif" font-size="14.00">karma</text>
</g>
<!-- captains&#45;&gt;karma -->
<g id="edge22" class="edge"><title>captains&#45;&gt;karma</title>
<path fill="none" stroke="black" d="M1113.18,-445.309C1152.93,-439.917 1215.21,-426.901 1259.65,-396 1292.27,-373.314 1300.25,-361.752 1312.65,-324 1338.84,-244.227 1269.54,-154.635 1231.97,-113.656"/>
<polygon fill="black" stroke="black" points="1234.31,-111.033 1224.92,-106.126 1229.2,-115.818 1234.31,-111.033"/>
</g>
<!-- stagedteamjoins -->
<g id="node15" class="node"><title>stagedteamjoins</title>
<ellipse fill="none" stroke="black" cx="1412.65" cy="-378" rx="67.6881" ry="18"/>
<text text-anchor="middle" x="1412.65" y="-374.3" font-family="Times,serif" font-size="14.00">stagedteamjoins</text>
</g>
<!-- captains&#45;&gt;stagedteamjoins -->
<g id="edge24" class="edge"><title>captains&#45;&gt;stagedteamjoins</title>
<path fill="none" stroke="black" d="M1109.84,-441.716C1159.19,-431.503 1251.76,-412.343 1330.65,-396 1337.25,-394.633 1344.14,-393.203 1351.02,-391.779"/>
<polygon fill="black" stroke="black" points="1351.95,-395.16 1361.03,-389.703 1350.53,-388.306 1351.95,-395.16"/>
</g>
<!-- teamswitch -->
<g id="node16" class="node"><title>teamswitch</title>
<ellipse fill="none" stroke="black" cx="683.645" cy="-378" rx="51.1914" ry="18"/>
<text text-anchor="middle" x="683.645" y="-374.3" font-family="Times,serif" font-size="14.00">teamswitch</text>
</g>
<!-- captains&#45;&gt;teamswitch -->
<g id="edge25" class="edge"><title>captains&#45;&gt;teamswitch</title>
<path fill="none" stroke="black" d="M1038.56,-442.54C969.759,-430.222 819.446,-403.312 738.262,-388.778"/>
<polygon fill="black" stroke="black" points="738.696,-385.3 728.236,-386.983 737.463,-392.191 738.696,-385.3"/>
</g>
<!-- timedstart&#45;&gt;afkkickhelper -->
<g id="edge43" class="edge"><title>timedstart&#45;&gt;afkkickhelper</title>
<path fill="none" stroke="black" d="M786.251,-540.104C787.825,-547.791 788.988,-557.054 789.516,-565.665"/>
<polygon fill="black" stroke="black" points="786.019,-565.811 789.831,-575.697 793.015,-565.592 786.019,-565.811"/>
</g>
<!-- timedstart&#45;&gt;captains -->
<g id="edge44" class="edge"><title>timedstart&#45;&gt;captains</title>
<path fill="none" stroke="black" d="M815.554,-511.119C869.713,-497.716 970.327,-473.926 1029.03,-460.645"/>
<polygon fill="black" stroke="black" points="1030.15,-463.982 1039.13,-458.372 1028.61,-457.153 1030.15,-463.982"/>
</g>
<!-- timedstart&#45;&gt;timedstart -->
<g id="edge45" class="edge"><title>timedstart&#45;&gt;timedstart</title>
<path fill="none" stroke="black" d="M810.66,-534.985C827.516,-537.086 842.791,-532.758 842.791,-522 842.791,-513.511 833.281,-509.026 820.987,-508.544"/>
<polygon fill="black" stroke="black" points="820.49,-505.063 810.66,-509.015 820.809,-512.055 820.49,-505.063"/>
</g>
<!-- timedstart&#45;&gt;teamswitch -->
<g id="edge46" class="edge"><title>timedstart&#45;&gt;teamswitch</title>
<path fill="none" stroke="black" d="M771.587,-504.164C763.47,-485.677 749.124,-455.496 732.645,-432 725.411,-421.684 716.3,-411.296 707.903,-402.483"/>
<polygon fill="black" stroke="black" points="710.265,-399.893 700.773,-395.186 705.258,-404.785 710.265,-399.893"/>
</g>
<!-- arclight&#45;&gt;afkkickhelper -->
<g id="edge6" class="edge"><title>arclight&#45;&gt;afkkickhelper</title>
<path fill="none" stroke="black" d="M874.864,-389.176C832.077,-405.627 754.925,-442.575 723.645,-504 716.385,-518.258 716.95,-525.468 723.645,-540 729.453,-552.606 739.903,-563.328 750.588,-571.762"/>
<polygon fill="black" stroke="black" points="748.604,-574.647 758.732,-577.758 752.754,-569.01 748.604,-574.647"/>
</g>
<!-- arclight&#45;&gt;timedstart -->
<g id="edge8" class="edge"><title>arclight&#45;&gt;timedstart</title>
<path fill="none" stroke="black" d="M890.296,-394.709C880.721,-405.224 867.876,-419.394 856.645,-432 837.208,-453.817 815.294,-478.861 799.655,-496.814"/>
<polygon fill="black" stroke="black" points="796.867,-494.685 792.942,-504.526 802.147,-499.281 796.867,-494.685"/>
</g>
<!-- arclight&#45;&gt;arclight -->
<g id="edge7" class="edge"><title>arclight&#45;&gt;arclight</title>
<path fill="none" stroke="black" d="M931.293,-390.807C946.376,-393.308 960.342,-389.039 960.342,-378 960.342,-369.548 952.156,-365.065 941.549,-364.55"/>
<polygon fill="black" stroke="black" points="941.054,-361.074 931.293,-365.193 941.492,-368.06 941.054,-361.074"/>
</g>
<!-- winorlose -->
<g id="node8" class="node"><title>winorlose</title>
<ellipse fill="none" stroke="black" cx="904.645" cy="-306" rx="45.4919" ry="18"/>
<text text-anchor="middle" x="904.645" y="-302.3" font-family="Times,serif" font-size="14.00">winorlose</text>
</g>
<!-- arclight&#45;&gt;winorlose -->
<g id="edge9" class="edge"><title>arclight&#45;&gt;winorlose</title>
<path fill="none" stroke="black" d="M898.767,-360.055C897.949,-352.346 897.707,-343.027 898.04,-334.364"/>
<polygon fill="black" stroke="black" points="901.54,-334.491 898.733,-324.275 894.556,-334.012 901.54,-334.491"/>
</g>
<!-- arclight&#45;&gt;balance -->
<g id="edge10" class="edge"><title>arclight&#45;&gt;balance</title>
<path fill="none" stroke="black" d="M933.124,-365.964C1047.62,-321.591 1474.48,-156.171 1604.69,-105.709"/>
<polygon fill="black" stroke="black" points="1606.19,-108.88 1614.25,-102.003 1603.66,-102.353 1606.19,-108.88"/>
</g>
<!-- arclight&#45;&gt;mapvotehelper -->
<g id="edge11" class="edge"><title>arclight&#45;&gt;mapvotehelper</title>
<path fill="none" stroke="black" d="M938.76,-370.092C988.008,-360.089 1081.87,-340.918 1161.65,-324 1167.87,-322.679 1174.38,-321.285 1180.86,-319.886"/>
<polygon fill="black" stroke="black" points="1181.95,-323.231 1190.98,-317.694 1180.47,-316.39 1181.95,-323.231"/>
</g>
<!-- winorlose&#45;&gt;arclight -->
<g id="edge77" class="edge"><title>winorlose&#45;&gt;arclight</title>
<path fill="none" stroke="black" d="M910.558,-324.275C911.36,-332.03 911.586,-341.362 911.236,-350.005"/>
<polygon fill="black" stroke="black" points="907.739,-349.832 910.524,-360.055 914.722,-350.327 907.739,-349.832"/>
</g>
<!-- winorlose&#45;&gt;winorlose -->
<g id="edge79" class="edge"><title>winorlose&#45;&gt;winorlose</title>
<path fill="none" stroke="black" d="M936.336,-318.985C953.021,-321.086 968.141,-316.758 968.141,-306 968.141,-297.511 958.727,-293.026 946.558,-292.544"/>
<polygon fill="black" stroke="black" points="946.164,-289.058 936.336,-293.015 946.486,-296.051 946.164,-289.058"/>
</g>
<!-- winorlose&#45;&gt;bots -->
<g id="edge78" class="edge"><title>winorlose&#45;&gt;bots</title>
<path fill="none" stroke="black" d="M864.025,-297.838C786.422,-284.155 618.22,-254.497 544.042,-241.417"/>
<polygon fill="black" stroke="black" points="544.257,-237.902 533.802,-239.612 543.042,-244.795 544.257,-237.902"/>
</g>
<!-- damagemodifier -->
<g id="node29" class="node"><title>damagemodifier</title>
<ellipse fill="none" stroke="black" cx="684.645" cy="-234" rx="69.5877" ry="18"/>
<text text-anchor="middle" x="684.645" y="-230.3" font-family="Times,serif" font-size="14.00">damagemodifier</text>
</g>
<!-- winorlose&#45;&gt;damagemodifier -->
<g id="edge80" class="edge"><title>winorlose&#45;&gt;damagemodifier</title>
<path fill="none" stroke="black" d="M870.27,-294.062C834.357,-282.635 777.598,-264.576 736.291,-251.433"/>
<polygon fill="black" stroke="black" points="737.264,-248.069 726.673,-248.373 735.141,-254.74 737.264,-248.069"/>
</g>
<!-- balance&#45;&gt;balance -->
<g id="edge84" class="edge"><title>balance&#45;&gt;balance</title>
<path fill="none" stroke="black" d="M1669.29,-102.807C1684.38,-105.308 1698.34,-101.039 1698.34,-90 1698.34,-81.5482 1690.16,-77.0649 1679.55,-76.5501"/>
<polygon fill="black" stroke="black" points="1679.05,-73.0741 1669.29,-77.193 1679.49,-80.0604 1679.05,-73.0741"/>
</g>
<!-- bots&#45;&gt;timedstart -->
<g id="edge48" class="edge"><title>bots&#45;&gt;timedstart</title>
<path fill="none" stroke="black" d="M480.527,-236.442C415.85,-240.957 261.071,-258.702 304.645,-324 399.934,-466.793 620.207,-506.235 723.414,-517.012"/>
<polygon fill="black" stroke="black" points="723.327,-520.52 733.623,-518.024 724.017,-513.554 723.327,-520.52"/>
</g>
<!-- bots&#45;&gt;arclight -->
<g id="edge47" class="edge"><title>bots&#45;&gt;arclight</title>
<path fill="none" stroke="black" d="M533.429,-239.637C595.135,-250.817 747.819,-278.997 769.645,-288 810.859,-305 852.893,-335.159 878.868,-355.608"/>
<polygon fill="black" stroke="black" points="876.718,-358.371 886.715,-361.877 881.087,-352.901 876.718,-358.371"/>
</g>
<!-- bots&#45;&gt;bots -->
<g id="edge49" class="edge"><title>bots&#45;&gt;bots</title>
<path fill="none" stroke="black" d="M527.54,-246.432C540.333,-249.675 552.645,-245.531 552.645,-234 552.645,-225.622 546.146,-221.143 537.685,-220.564"/>
<polygon fill="black" stroke="black" points="537.147,-217.1 527.54,-221.568 537.836,-224.066 537.147,-217.1"/>
</g>
<!-- bots&#45;&gt;communityslots -->
<g id="edge50" class="edge"><title>bots&#45;&gt;communityslots</title>
<path fill="none" stroke="black" d="M531.238,-225.161C541.939,-221.876 554.82,-218.295 566.645,-216 719.724,-186.296 761.547,-203.858 915.645,-180 922.757,-178.899 930.185,-177.588 937.54,-176.19"/>
<polygon fill="black" stroke="black" points="938.348,-179.598 947.488,-174.24 937.002,-172.729 938.348,-179.598"/>
</g>
<!-- bots&#45;&gt;karma -->
<g id="edge51" class="edge"><title>bots&#45;&gt;karma</title>
<path fill="none" stroke="black" d="M531.552,-225.218C542.201,-221.984 554.956,-218.426 566.645,-216 688.632,-190.68 725.104,-215.098 844.645,-180 880.507,-169.471 885.073,-155.468 920.645,-144 1005.88,-116.519 1110.14,-101.803 1167.23,-95.2694"/>
<polygon fill="black" stroke="black" points="1167.78,-98.7303 1177.33,-94.1434 1167,-91.7734 1167.78,-98.7303"/>
</g>
<!-- groundedrookies -->
<g id="node20" class="node"><title>groundedrookies</title>
<ellipse fill="none" stroke="black" cx="396.645" cy="-90" rx="69.5877" ry="18"/>
<text text-anchor="middle" x="396.645" y="-86.3" font-family="Times,serif" font-size="14.00">groundedrookies</text>
</g>
<!-- bots&#45;&gt;groundedrookies -->
<g id="edge52" class="edge"><title>bots&#45;&gt;groundedrookies</title>
<path fill="none" stroke="black" d="M483.425,-225.393C462.251,-217.468 432.352,-202.95 415.645,-180 402.604,-162.085 398.149,-137.086 396.787,-118.142"/>
<polygon fill="black" stroke="black" points="400.279,-117.879 396.307,-108.057 393.287,-118.212 400.279,-117.879"/>
</g>
<!-- TGNSConnectedTimesTracker -->
<g id="node24" class="node"><title>TGNSConnectedTimesTracker</title>
<ellipse fill="none" stroke="black" cx="545.645" cy="-162" rx="120.779" ry="18"/>
<text text-anchor="middle" x="545.645" y="-158.3" font-family="Times,serif" font-size="14.00">TGNSConnectedTimesTracker</text>
</g>
<!-- bots&#45;&gt;TGNSConnectedTimesTracker -->
<g id="edge53" class="edge"><title>bots&#45;&gt;TGNSConnectedTimesTracker</title>
<path fill="none" stroke="black" d="M516.459,-216.765C520.931,-208.525 526.473,-198.317 531.523,-189.016"/>
<polygon fill="black" stroke="black" points="534.655,-190.582 536.349,-180.124 528.503,-187.243 534.655,-190.582"/>
</g>
<!-- communityslots&#45;&gt;timedstart -->
<g id="edge55" class="edge"><title>communityslots&#45;&gt;timedstart</title>
<path fill="none" stroke="black" d="M960.311,-177.075C935.098,-187.004 901.315,-201.138 872.645,-216 791.839,-257.89 778.456,-280.243 698.645,-324 666.224,-341.775 643.337,-328.705 623.645,-360 615.124,-373.542 615.272,-382.366 623.645,-396 642.161,-426.148 666.305,-410.821 694.645,-432 708.271,-442.183 737.714,-474.446 757.857,-497.184"/>
<polygon fill="black" stroke="black" points="755.314,-499.592 764.553,-504.778 760.564,-494.962 755.314,-499.592"/>
</g>
<!-- communityslots&#45;&gt;arclight -->
<g id="edge54" class="edge"><title>communityslots&#45;&gt;arclight</title>
<path fill="none" stroke="black" d="M999.604,-180.388C1002.24,-211.529 1003.86,-277.871 976.645,-324 967.912,-338.805 953.261,-350.719 939.446,-359.473"/>
<polygon fill="black" stroke="black" points="937.359,-356.642 930.56,-364.767 940.942,-362.656 937.359,-356.642"/>
</g>
<!-- communityslots&#45;&gt;winorlose -->
<g id="edge57" class="edge"><title>communityslots&#45;&gt;winorlose</title>
<path fill="none" stroke="black" d="M945.614,-173.554C922.158,-181.186 896.632,-194.153 882.645,-216 870.385,-235.15 878.66,-260.644 888.369,-279.437"/>
<polygon fill="black" stroke="black" points="885.396,-281.293 893.32,-288.325 891.511,-277.886 885.396,-281.293"/>
</g>
<!-- communityslots&#45;&gt;balance -->
<g id="edge59" class="edge"><title>communityslots&#45;&gt;balance</title>
<path fill="none" stroke="black" d="M1058.91,-154.351C1187.13,-140.435 1481.38,-108.502 1595.86,-96.0772"/>
<polygon fill="black" stroke="black" points="1596.48,-99.5303 1606.05,-94.9717 1595.73,-92.5712 1596.48,-99.5303"/>
</g>
<!-- communityslots&#45;&gt;communityslots -->
<g id="edge56" class="edge"><title>communityslots&#45;&gt;communityslots</title>
<path fill="none" stroke="black" d="M1043.87,-175.262C1064.93,-176.616 1083.24,-172.195 1083.24,-162 1083.24,-153.477 1070.45,-148.99 1053.95,-148.538"/>
<polygon fill="black" stroke="black" points="1053.8,-145.04 1043.87,-148.738 1053.94,-152.039 1053.8,-145.04"/>
</g>
<!-- communityslots&#45;&gt;audit -->
<g id="edge58" class="edge"><title>communityslots&#45;&gt;audit</title>
<path fill="none" stroke="black" d="M968.238,-145.638C946.262,-134.158 916.308,-118.511 894.087,-106.902"/>
<polygon fill="black" stroke="black" points="895.567,-103.727 885.083,-102.199 892.326,-109.931 895.567,-103.727"/>
</g>
<!-- communityslots&#45;&gt;karma -->
<g id="edge60" class="edge"><title>communityslots&#45;&gt;karma</title>
<path fill="none" stroke="black" d="M1035,-146.834C1073.24,-133.632 1132.21,-114.212 1170.94,-102.101"/>
<polygon fill="black" stroke="black" points="1172.29,-105.345 1180.8,-99.0384 1170.22,-98.6593 1172.29,-105.345"/>
</g>
<!-- communityslots&#45;&gt;groundedrookies -->
<g id="edge62" class="edge"><title>communityslots&#45;&gt;groundedrookies</title>
<path fill="none" stroke="black" d="M936.989,-153.935C825.492,-140.949 588.459,-113.341 468.862,-99.4112"/>
<polygon fill="black" stroke="black" points="469.047,-95.9093 458.71,-98.2288 468.238,-102.862 469.047,-95.9093"/>
</g>
<!-- fullgameplayed -->
<g id="node25" class="node"><title>fullgameplayed</title>
<ellipse fill="none" stroke="black" cx="997.645" cy="-90" rx="65.7887" ry="18"/>
<text text-anchor="middle" x="997.645" y="-86.3" font-family="Times,serif" font-size="14.00">fullgameplayed</text>
</g>
<!-- communityslots&#45;&gt;fullgameplayed -->
<g id="edge61" class="edge"><title>communityslots&#45;&gt;fullgameplayed</title>
<path fill="none" stroke="black" d="M997.645,-143.697C997.645,-135.983 997.645,-126.712 997.645,-118.112"/>
<polygon fill="black" stroke="black" points="1001.15,-118.104 997.645,-108.104 994.145,-118.104 1001.15,-118.104"/>
</g>
<!-- siegehelper -->
<g id="node26" class="node"><title>siegehelper</title>
<ellipse fill="none" stroke="black" cx="650.645" cy="-90" rx="50.8918" ry="18"/>
<text text-anchor="middle" x="650.645" y="-86.3" font-family="Times,serif" font-size="14.00">siegehelper</text>
</g>
<!-- communityslots&#45;&gt;siegehelper -->
<g id="edge63" class="edge"><title>communityslots&#45;&gt;siegehelper</title>
<path fill="none" stroke="black" d="M945.32,-150.445C880.083,-137.284 769.193,-114.915 703.644,-101.691"/>
<polygon fill="black" stroke="black" points="704.021,-98.1971 693.527,-99.6504 702.637,-105.059 704.021,-98.1971"/>
</g>
<!-- karma&#45;&gt;TGNSCommonServer -->
<g id="edge111" class="edge"><title>karma&#45;&gt;TGNSCommonServer</title>
<path fill="none" stroke="black" d="M1242.07,-85.4807C1337.87,-75.0841 1621.95,-44.2539 1767.12,-28.4993"/>
<polygon fill="black" stroke="black" points="1767.76,-31.9501 1777.32,-27.3915 1767,-24.9909 1767.76,-31.9501"/>
</g>
<!-- karma&#45;&gt;communityslots -->
<g id="edge109" class="edge"><title>karma&#45;&gt;communityslots</title>
<path fill="none" stroke="black" d="M1183.46,-101.281C1150.53,-112.845 1093.5,-131.764 1051.23,-145.207"/>
<polygon fill="black" stroke="black" points="1050.11,-141.888 1041.63,-148.242 1052.23,-148.562 1050.11,-141.888"/>
</g>
<!-- karma&#45;&gt;karma -->
<g id="edge110" class="edge"><title>karma&#45;&gt;karma</title>
<path fill="none" stroke="black" d="M1233.32,-102.656C1247.47,-105.469 1260.79,-101.25 1260.79,-90 1260.79,-81.5625 1253.3,-77.0801 1243.58,-76.5527"/>
<polygon fill="black" stroke="black" points="1243.02,-73.0855 1233.32,-77.3438 1243.56,-80.0648 1243.02,-73.0855"/>
</g>
<!-- scoreboard -->
<g id="node17" class="node"><title>scoreboard</title>
<ellipse fill="none" stroke="black" cx="2351.65" cy="-666" rx="49.2915" ry="18"/>
<text text-anchor="middle" x="2351.65" y="-662.3" font-family="Times,serif" font-size="14.00">scoreboard</text>
</g>
<!-- scoreboard&#45;&gt;afkkickhelper -->
<g id="edge26" class="edge"><title>scoreboard&#45;&gt;afkkickhelper</title>
<path fill="none" stroke="black" d="M2302.16,-664.508C2077.02,-662.074 1147.95,-649.885 859.645,-612 852.884,-611.111 845.833,-609.888 838.886,-608.501"/>
<polygon fill="black" stroke="black" points="839.336,-605.019 828.828,-606.372 837.886,-611.867 839.336,-605.019"/>
</g>
<!-- scoreboard&#45;&gt;captains -->
<g id="edge27" class="edge"><title>scoreboard&#45;&gt;captains</title>
<path fill="none" stroke="black" d="M2302.31,-663.923C2170.89,-660.627 1801.57,-648.567 1496.65,-612 1315.99,-590.336 1224.44,-666.481 1093.65,-540 1077.28,-524.173 1073.32,-497.964 1072.98,-478.076"/>
<polygon fill="black" stroke="black" points="1076.48,-478.103 1073.1,-468.062 1069.48,-478.02 1076.48,-478.103"/>
</g>
<!-- scoreboard&#45;&gt;server -->
<g id="edge33" class="edge"><title>scoreboard&#45;&gt;server</title>
<path fill="none" stroke="black" d="M2379.97,-651.192C2397.05,-642.969 2416.87,-630.442 2427.65,-612 2456.15,-563.199 2457.31,-493.176 2391.65,-432 2356.66,-399.402 2221.72,-386.433 2151.21,-381.613"/>
<polygon fill="black" stroke="black" points="2151.09,-378.097 2140.88,-380.933 2150.63,-385.082 2151.09,-378.097"/>
</g>
<!-- scoreboard&#45;&gt;server -->
<g id="edge34" class="edge"><title>scoreboard&#45;&gt;server</title>
<path fill="none" stroke="black" d="M2389.09,-654.218C2409.68,-646.163 2433.45,-632.868 2445.65,-612 2474.15,-563.199 2475.31,-493.176 2409.65,-432 2372.83,-397.697 2225.34,-385.131 2151.38,-380.922"/>
<polygon fill="black" stroke="black" points="2151.2,-377.407 2141.02,-380.36 2150.82,-384.397 2151.2,-377.407"/>
</g>
<!-- scoreboard&#45;&gt;server -->
<g id="edge35" class="edge"><title>scoreboard&#45;&gt;server</title>
<path fill="none" stroke="black" d="M2395.03,-657.367C2420.62,-649.82 2449.71,-635.861 2463.65,-612 2492.15,-563.199 2493.31,-493.176 2427.65,-432 2389.1,-396.086 2229.23,-383.998 2151.06,-380.382"/>
<polygon fill="black" stroke="black" points="2151.18,-376.885 2141.04,-379.945 2150.88,-383.878 2151.18,-376.885"/>
</g>
<!-- scoreboard&#45;&gt;TGNSCommonServer -->
<g id="edge42" class="edge"><title>scoreboard&#45;&gt;TGNSCommonServer</title>
<path fill="none" stroke="black" d="M2302.23,-664.448C1986.8,-660.845 266.598,-639.934 220.645,-612 182.061,-588.545 171.645,-568.154 171.645,-523 171.645,-523 171.645,-523 171.645,-161 171.645,-85.0052 244.845,-93.8004 317.645,-72 454.36,-31.0603 1434.78,-21.5359 1754.28,-19.5083"/>
<polygon fill="black" stroke="black" points="1754.47,-23.0073 1764.45,-19.4449 1754.43,-16.0074 1754.47,-23.0073"/>
</g>
<!-- scoreboard&#45;&gt;winorlose -->
<g id="edge29" class="edge"><title>scoreboard&#45;&gt;winorlose</title>
<path fill="none" stroke="black" d="M2302.33,-664.876C2036.59,-664.021 784.793,-657.582 717.645,-612 618.742,-544.861 547.353,-452.027 623.645,-360 651.75,-326.098 775.849,-313.731 849.399,-309.333"/>
<polygon fill="black" stroke="black" points="849.64,-312.825 859.426,-308.764 849.244,-305.836 849.64,-312.825"/>
</g>
<!-- scoreboard&#45;&gt;balance -->
<g id="edge36" class="edge"><title>scoreboard&#45;&gt;balance</title>
<path fill="none" stroke="black" d="M2387.3,-653.538C2394.63,-651.467 2402.35,-649.494 2409.65,-648 2542.07,-620.896 2579.91,-642.282 2711.65,-612 2723.56,-609.261 3118.9,-476.552 3127.65,-468 3157.8,-438.497 3160.65,-421.187 3160.65,-379 3160.65,-379 3160.65,-379 3160.65,-233 3160.65,-173.499 3583.68,-261.092 2902.65,-144 2781.63,-123.194 1905.2,-98.1552 1690.18,-92.2777"/>
<polygon fill="black" stroke="black" points="1690.25,-88.7783 1680.15,-92.0045 1690.05,-95.7757 1690.25,-88.7783"/>
</g>
<!-- scoreboard&#45;&gt;communityslots -->
<g id="edge28" class="edge"><title>scoreboard&#45;&gt;communityslots</title>
<path fill="none" stroke="black" d="M2302.06,-664.834C2019.96,-663.73 627.163,-656.055 548.645,-612 507.47,-588.897 490.645,-570.214 490.645,-523 490.645,-523 490.645,-523 490.645,-449 490.645,-391.259 557.606,-248.034 605.645,-216 659.857,-179.85 832.169,-189.41 896.645,-180 908.398,-178.285 920.894,-176.307 932.945,-174.321"/>
<polygon fill="black" stroke="black" points="933.649,-177.752 942.937,-172.656 932.498,-170.847 933.649,-177.752"/>
</g>
<!-- client -->
<g id="node18" class="node"><title>client</title>
<ellipse fill="none" stroke="black" cx="3254.65" cy="-378" rx="30.5947" ry="18"/>
<text text-anchor="middle" x="3254.65" y="-374.3" font-family="Times,serif" font-size="14.00">client</text>
</g>
<!-- scoreboard&#45;&gt;client -->
<g id="edge30" class="edge"><title>scoreboard&#45;&gt;client</title>
<path fill="none" stroke="black" d="M2378.45,-650.8C2382.82,-649.716 2387.3,-648.753 2391.65,-648 2663.17,-600.941 2743.74,-680.583 3010.65,-612 3082.66,-593.497 3109.31,-592.809 3161.65,-540 3200.37,-500.929 3221.54,-438.132 3236.91,-403.647"/>
<polygon fill="black" stroke="black" points="3240.21,-404.851 3241.31,-394.312 3233.88,-401.87 3240.21,-404.851"/>
</g>
<!-- scoreboard&#45;&gt;client -->
<g id="edge31" class="edge"><title>scoreboard&#45;&gt;client</title>
<path fill="none" stroke="black" d="M2386.93,-653.277C2394.36,-651.199 2402.2,-649.29 2409.65,-648 2681.17,-600.941 2761.74,-680.583 3028.65,-612 3100.66,-593.497 3127.31,-592.809 3179.65,-540 3217.41,-501.891 3238.49,-441.208 3248.11,-406.244"/>
<polygon fill="black" stroke="black" points="3251.58,-406.833 3250.74,-396.272 3244.81,-405.051 3251.58,-406.833"/>
</g>
<!-- scoreboard&#45;&gt;client -->
<g id="edge32" class="edge"><title>scoreboard&#45;&gt;client</title>
<path fill="none" stroke="black" d="M2393.48,-656.286C2404.86,-653.14 2416.69,-649.899 2427.65,-648 2699.17,-600.941 2779.74,-680.583 3046.65,-612 3118.66,-593.497 3145.31,-592.809 3197.65,-540 3235.45,-501.858 3256.53,-441.102 3260.47,-406.152"/>
<polygon fill="black" stroke="black" points="3263.99,-405.98 3261.15,-395.773 3257.01,-405.523 3263.99,-405.98"/>
</g>
<!-- lapstracker -->
<g id="node19" class="node"><title>lapstracker</title>
<ellipse fill="none" stroke="black" cx="622.645" cy="-306" rx="49.2915" ry="18"/>
<text text-anchor="middle" x="622.645" y="-302.3" font-family="Times,serif" font-size="14.00">lapstracker</text>
</g>
<!-- scoreboard&#45;&gt;lapstracker -->
<g id="edge37" class="edge"><title>scoreboard&#45;&gt;lapstracker</title>
<path fill="none" stroke="black" d="M2302.23,-664.998C2041.11,-664.781 828.062,-661.117 668.645,-612 598.183,-590.29 528.645,-596.731 528.645,-523 528.645,-523 528.645,-523 528.645,-449 528.645,-400.086 567.906,-355.087 595.681,-329.372"/>
<polygon fill="black" stroke="black" points="598.07,-331.931 603.168,-322.643 593.391,-326.724 598.07,-331.931"/>
</g>
<!-- scoreboard&#45;&gt;groundedrookies -->
<g id="edge38" class="edge"><title>scoreboard&#45;&gt;groundedrookies</title>
<path fill="none" stroke="black" d="M2302.1,-664.374C2025.95,-660.782 682.661,-641.881 500.645,-612 367.185,-590.09 209.645,-658.247 209.645,-523 209.645,-523 209.645,-523 209.645,-233 209.645,-166.279 286.084,-126.829 341.22,-107.052"/>
<polygon fill="black" stroke="black" points="342.595,-110.28 350.9,-103.701 340.305,-103.665 342.595,-110.28"/>
</g>
<!-- targetedcommands -->
<g id="node21" class="node"><title>targetedcommands</title>
<ellipse fill="none" stroke="black" cx="2606.65" cy="-594" rx="77.9862" ry="18"/>
<text text-anchor="middle" x="2606.65" y="-590.3" font-family="Times,serif" font-size="14.00">targetedcommands</text>
</g>
<!-- scoreboard&#45;&gt;targetedcommands -->
<g id="edge39" class="edge"><title>scoreboard&#45;&gt;targetedcommands</title>
<path fill="none" stroke="black" d="M2388.74,-653.994C2395.68,-651.973 2402.88,-649.902 2409.65,-648 2455.75,-635.042 2508.12,-620.985 2547.27,-610.606"/>
<polygon fill="black" stroke="black" points="2548.4,-613.925 2557.18,-607.982 2546.61,-607.158 2548.4,-613.925"/>
</g>
<!-- voicecommreminder -->
<g id="node22" class="node"><title>voicecommreminder</title>
<ellipse fill="none" stroke="black" cx="2351.65" cy="-594" rx="85.2851" ry="18"/>
<text text-anchor="middle" x="2351.65" y="-590.3" font-family="Times,serif" font-size="14.00">voicecommreminder</text>
</g>
<!-- scoreboard&#45;&gt;voicecommreminder -->
<g id="edge40" class="edge"><title>scoreboard&#45;&gt;voicecommreminder</title>
<path fill="none" stroke="black" d="M2351.65,-647.697C2351.65,-639.983 2351.65,-630.712 2351.65,-622.112"/>
<polygon fill="black" stroke="black" points="2355.15,-622.104 2351.65,-612.104 2348.15,-622.104 2355.15,-622.104"/>
</g>
<!-- teamroles -->
<g id="node23" class="node"><title>teamroles</title>
<ellipse fill="none" stroke="black" cx="1657.65" cy="-378" rx="45.4919" ry="18"/>
<text text-anchor="middle" x="1657.65" y="-374.3" font-family="Times,serif" font-size="14.00">teamroles</text>
</g>
<!-- scoreboard&#45;&gt;teamroles -->
<g id="edge41" class="edge"><title>scoreboard&#45;&gt;teamroles</title>
<path fill="none" stroke="black" d="M2302.1,-664.934C2135.49,-664.281 1602.57,-658.542 1542.65,-612 1510,-586.641 1471.38,-465.47 1495.65,-432 1499.24,-427.037 1566.06,-406.292 1612.75,-392.275"/>
<polygon fill="black" stroke="black" points="1613.8,-395.615 1622.38,-389.395 1611.79,-388.909 1613.8,-395.615"/>
</g>
<!-- lapstracker&#45;&gt;lapstracker -->
<g id="edge118" class="edge"><title>lapstracker&#45;&gt;lapstracker</title>
<path fill="none" stroke="black" d="M656.976,-319.064C674.409,-320.972 690.041,-316.617 690.041,-306 690.041,-297.539 680.114,-293.056 667.26,-292.548"/>
<polygon fill="black" stroke="black" points="666.837,-289.062 656.976,-292.936 667.1,-296.057 666.837,-289.062"/>
</g>
<!-- lapstracker&#45;&gt;damagemodifier -->
<g id="edge119" class="edge"><title>lapstracker&#45;&gt;damagemodifier</title>
<path fill="none" stroke="black" d="M637.025,-288.765C644.816,-279.969 654.595,-268.928 663.261,-259.144"/>
<polygon fill="black" stroke="black" points="665.903,-261.44 669.913,-251.633 660.662,-256.799 665.903,-261.44"/>
</g>
<!-- targetedcommands&#45;&gt;server -->
<g id="edge131" class="edge"><title>targetedcommands&#45;&gt;server</title>
<path fill="none" stroke="black" d="M2602.34,-575.888C2592.87,-542.077 2566.78,-466.964 2514.65,-432 2455.88,-392.591 2242.99,-382.424 2151.22,-379.851"/>
<polygon fill="black" stroke="black" points="2151.26,-376.35 2141.17,-379.586 2151.07,-383.348 2151.26,-376.35"/>
</g>
<!-- targetedcommands&#45;&gt;targetedcommands -->
<g id="edge132" class="edge"><title>targetedcommands&#45;&gt;targetedcommands</title>
<path fill="none" stroke="black" d="M2659.46,-607.315C2682.67,-608.493 2702.64,-604.055 2702.64,-594 2702.64,-585.438 2688.16,-580.948 2669.53,-580.532"/>
<polygon fill="black" stroke="black" points="2669.41,-577.033 2659.46,-580.685 2669.52,-584.032 2669.41,-577.033"/>
</g>
<!-- voicecommreminder&#45;&gt;server -->
<g id="edge133" class="edge"><title>voicecommreminder&#45;&gt;server</title>
<path fill="none" stroke="black" d="M2363.85,-575.786C2384.93,-543.742 2422.71,-474.359 2387.65,-432 2358.15,-396.374 2222.03,-384.5 2151.42,-380.699"/>
<polygon fill="black" stroke="black" points="2151.25,-377.186 2141.08,-380.175 2150.89,-384.177 2151.25,-377.186"/>
</g>
<!-- mapvote -->
<g id="node27" class="node"><title>mapvote</title>
<ellipse fill="none" stroke="black" cx="1593.65" cy="-594" rx="41.6928" ry="18"/>
<text text-anchor="middle" x="1593.65" y="-590.3" font-family="Times,serif" font-size="14.00">mapvote</text>
</g>
<!-- mapvote&#45;&gt;captains -->
<g id="edge65" class="edge"><title>mapvote&#45;&gt;captains</title>
<path fill="none" stroke="black" d="M1552.66,-590.168C1502.35,-585.366 1415.49,-572.706 1348.65,-540 1326.26,-529.046 1327.96,-515.094 1305.65,-504 1246.95,-474.824 1171.85,-461.436 1123.49,-455.485"/>
<polygon fill="black" stroke="black" points="1123.63,-451.978 1113.3,-454.291 1122.82,-458.93 1123.63,-451.978"/>
</g>
<!-- mapvote&#45;&gt;server -->
<g id="edge68" class="edge"><title>mapvote&#45;&gt;server</title>
<path fill="none" stroke="black" d="M1634.65,-590.879C1687.9,-586.718 1779.37,-574.65 1850.65,-540 1916.07,-508.191 1913.13,-472.377 1973.65,-432 2002.21,-412.941 2038.63,-396.502 2068.19,-387.179"/>
<polygon fill="black" stroke="black" points="2069.33,-390.49 2077.93,-384.296 2067.34,-383.778 2069.33,-390.49"/>
</g>
<!-- mapvote&#45;&gt;server -->
<g id="edge69" class="edge"><title>mapvote&#45;&gt;server</title>
<path fill="none" stroke="black" d="M1634.95,-591.754C1690.71,-588.551 1791.51,-577.501 1868.65,-540 1934.07,-508.191 1931.13,-472.377 1991.65,-432 2016.54,-415.393 2047.39,-400.775 2071.32,-391.121"/>
<polygon fill="black" stroke="black" points="2072.74,-394.323 2080.78,-387.421 2070.19,-387.803 2072.74,-394.323"/>
</g>
<!-- mapvote&#45;&gt;server -->
<g id="edge70" class="edge"><title>mapvote&#45;&gt;server</title>
<path fill="none" stroke="black" d="M1635.33,-592.319C1694.44,-589.971 1804.1,-580.133 1886.65,-540 1952.07,-508.191 1949.13,-472.377 2009.65,-432 2031,-417.754 2056.74,-404.972 2076.74,-395.532"/>
<polygon fill="black" stroke="black" points="2078.47,-398.582 2086.05,-391.174 2075.51,-392.242 2078.47,-398.582"/>
</g>
<!-- mapvote&#45;&gt;server -->
<g id="edge71" class="edge"><title>mapvote&#45;&gt;server</title>
<path fill="none" stroke="black" d="M1635.4,-592.666C1699.16,-591.045 1817.14,-582.545 1904.65,-540 1970.07,-508.191 1967.13,-472.377 2027.65,-432 2046.41,-419.481 2068.56,-408.091 2085.88,-399.107"/>
<polygon fill="black" stroke="black" points="2087.7,-402.102 2094.95,-394.372 2084.46,-395.897 2087.7,-402.102"/>
</g>
<!-- mapvote&#45;&gt;TGNSCommonServer -->
<g id="edge76" class="edge"><title>mapvote&#45;&gt;TGNSCommonServer</title>
<path fill="none" stroke="black" d="M1635.29,-591.941C1869.93,-585.929 3022.2,-555.803 3179.65,-540 3371.58,-520.736 3483.07,-615.277 3607.65,-468 3651.47,-416.186 3660.05,-305.333 3174.65,-144 3036.1,-97.9523 2664,-121.708 2518.65,-108 2306.06,-87.9508 2056.89,-50.8856 1932.94,-31.5215"/>
<polygon fill="black" stroke="black" points="1933.21,-28.0209 1922.79,-29.9311 1932.13,-34.9366 1933.21,-28.0209"/>
</g>
<!-- mapvote&#45;&gt;timedstart -->
<g id="edge66" class="edge"><title>mapvote&#45;&gt;timedstart</title>
<path fill="none" stroke="black" d="M1552.27,-592.094C1439.9,-589.186 1119.79,-577.939 856.645,-540 846.871,-538.591 836.496,-536.649 826.611,-534.581"/>
<polygon fill="black" stroke="black" points="827.048,-531.094 816.533,-532.396 825.565,-537.935 827.048,-531.094"/>
</g>
<!-- mapvote&#45;&gt;arclight -->
<g id="edge64" class="edge"><title>mapvote&#45;&gt;arclight</title>
<path fill="none" stroke="black" d="M1551.76,-593.078C1407.08,-592.916 934.76,-588.638 889.645,-540 855.792,-503.503 876.036,-440.317 891.675,-404.929"/>
<polygon fill="black" stroke="black" points="894.907,-406.277 895.915,-395.73 888.55,-403.347 894.907,-406.277"/>
</g>
<!-- mapvote&#45;&gt;balance -->
<g id="edge72" class="edge"><title>mapvote&#45;&gt;balance</title>
<path fill="none" stroke="black" d="M1634.69,-590.991C1870.78,-579.265 3047.18,-518.439 3103.65,-468 3133.81,-441.054 3122.65,-419.447 3122.65,-379 3122.65,-379 3122.65,-379 3122.65,-233 3122.65,-26.5093 2871.6,-169.177 2666.65,-144 2292.65,-98.0569 1837.06,-91.8548 1690.48,-91.0844"/>
<polygon fill="black" stroke="black" points="1690.49,-87.5845 1680.47,-91.0379 1690.45,-94.5844 1690.49,-87.5845"/>
</g>
<!-- mapvote&#45;&gt;mapvotehelper -->
<g id="edge73" class="edge"><title>mapvote&#45;&gt;mapvotehelper</title>
<path fill="none" stroke="black" d="M1552.05,-593.399C1510.93,-591.284 1449.91,-580.854 1419.65,-540 1409.26,-525.982 1411.6,-452.475 1424.65,-432 1442.39,-404.147 1472.88,-424.451 1489.65,-396 1497.77,-382.215 1499.73,-372.419 1489.65,-360 1440.4,-299.381 1394.02,-340.316 1317.65,-324 1311.42,-322.67 1304.92,-321.27 1298.44,-319.868"/>
<polygon fill="black" stroke="black" points="1298.83,-316.372 1288.31,-317.672 1297.34,-323.212 1298.83,-316.372"/>
</g>
<!-- mapvote&#45;&gt;bots -->
<g id="edge67" class="edge"><title>mapvote&#45;&gt;bots</title>
<path fill="none" stroke="black" d="M1552.15,-592.307C1389.26,-589.34 798.764,-576.161 723.645,-540 607.111,-483.902 588.716,-438.536 528.645,-324 518.536,-304.725 513.232,-280.571 510.486,-262.291"/>
<polygon fill="black" stroke="black" points="513.943,-261.735 509.147,-252.288 507.004,-262.664 513.943,-261.735"/>
</g>
<!-- mapvote&#45;&gt;stagedteamjoins -->
<g id="edge75" class="edge"><title>mapvote&#45;&gt;stagedteamjoins</title>
<path fill="none" stroke="black" d="M1553.8,-588.56C1499.58,-581.603 1406.95,-566.154 1386.65,-540 1356.18,-500.747 1379.7,-439.648 1397.51,-405.103"/>
<polygon fill="black" stroke="black" points="1400.7,-406.572 1402.33,-396.104 1394.52,-403.266 1400.7,-406.572"/>
</g>
<!-- specbets -->
<g id="node28" class="node"><title>specbets</title>
<ellipse fill="none" stroke="black" cx="1593.65" cy="-522" rx="40.0939" ry="18"/>
<text text-anchor="middle" x="1593.65" y="-518.3" font-family="Times,serif" font-size="14.00">specbets</text>
</g>
<!-- mapvote&#45;&gt;specbets -->
<g id="edge74" class="edge"><title>mapvote&#45;&gt;specbets</title>
<path fill="none" stroke="black" d="M1593.65,-575.697C1593.65,-567.983 1593.65,-558.712 1593.65,-550.112"/>
<polygon fill="black" stroke="black" points="1597.15,-550.104 1593.65,-540.104 1590.15,-550.104 1597.15,-550.104"/>
</g>
<!-- tf_comeback -->
<g id="node30" class="node"><title>tf_comeback</title>
<ellipse fill="none" stroke="black" cx="778.645" cy="-162" rx="56.59" ry="18"/>
<text text-anchor="middle" x="778.645" y="-158.3" font-family="Times,serif" font-size="14.00">tf_comeback</text>
</g>
<!-- tf_comeback&#45;&gt;audit -->
<g id="edge81" class="edge"><title>tf_comeback&#45;&gt;audit</title>
<path fill="none" stroke="black" d="M798.36,-144.765C810.429,-134.825 825.979,-122.02 838.875,-111.399"/>
<polygon fill="black" stroke="black" points="841.408,-113.847 846.903,-104.788 836.958,-108.443 841.408,-113.847"/>
</g>
<!-- autoexec -->
<g id="node31" class="node"><title>autoexec</title>
<ellipse fill="none" stroke="black" cx="2608.65" cy="-450" rx="42.4939" ry="18"/>
<text text-anchor="middle" x="2608.65" y="-446.3" font-family="Times,serif" font-size="14.00">autoexec</text>
</g>
<!-- autoexec&#45;&gt;server -->
<g id="edge83" class="edge"><title>autoexec&#45;&gt;server</title>
<path fill="none" stroke="black" d="M2576.62,-438.221C2568.84,-435.898 2560.5,-433.648 2552.65,-432 2406.86,-401.418 2230.17,-386.905 2150.81,-381.553"/>
<polygon fill="black" stroke="black" points="2150.93,-378.054 2140.72,-380.887 2150.47,-385.039 2150.93,-378.054"/>
</g>
<!-- autoexec&#45;&gt;client -->
<g id="edge82" class="edge"><title>autoexec&#45;&gt;client</title>
<path fill="none" stroke="black" d="M2639.34,-437.488C2645.96,-435.368 2652.98,-433.389 2659.65,-432 2864.66,-389.309 3116.45,-380.99 3213.67,-379.381"/>
<polygon fill="black" stroke="black" points="3213.99,-382.877 3223.94,-379.227 3213.89,-375.877 3213.99,-382.877"/>
</g>
<!-- sidebar -->
<g id="node32" class="node"><title>sidebar</title>
<ellipse fill="none" stroke="black" cx="934.645" cy="-522" rx="36.2938" ry="18"/>
<text text-anchor="middle" x="934.645" y="-518.3" font-family="Times,serif" font-size="14.00">sidebar</text>
</g>
<!-- sidebar&#45;&gt;captains -->
<g id="edge85" class="edge"><title>sidebar&#45;&gt;captains</title>
<path fill="none" stroke="black" d="M959.352,-508.647C981.626,-497.51 1014.62,-481.011 1039.62,-468.515"/>
<polygon fill="black" stroke="black" points="1041.38,-471.544 1048.76,-463.941 1038.25,-465.283 1041.38,-471.544"/>
</g>
<!-- sidebar&#45;&gt;balance -->
<g id="edge88" class="edge"><title>sidebar&#45;&gt;balance</title>
<path fill="none" stroke="black" d="M968.727,-515.526C1083.73,-496.757 1452.39,-434.079 1489.65,-396 1569.56,-314.321 1471.89,-235.27 1540.65,-144 1555.54,-124.234 1579.93,-111.181 1601.14,-102.976"/>
<polygon fill="black" stroke="black" points="1602.4,-106.241 1610.61,-99.54 1600.01,-99.6602 1602.4,-106.241"/>
</g>
<!-- sidebar&#45;&gt;bots -->
<g id="edge86" class="edge"><title>sidebar&#45;&gt;bots</title>
<path fill="none" stroke="black" d="M917.153,-506.207C870.211,-466.515 744.915,-360.612 743.645,-360 670.555,-324.745 631.628,-369.808 564.645,-324 542.258,-308.69 526.721,-281.389 517.586,-261.048"/>
<polygon fill="black" stroke="black" points="520.748,-259.538 513.615,-251.704 514.306,-262.276 520.748,-259.538"/>
</g>
<!-- sidebar&#45;&gt;communityslots -->
<g id="edge87" class="edge"><title>sidebar&#45;&gt;communityslots</title>
<path fill="none" stroke="black" d="M941.994,-504.136C959.656,-462.406 1003.83,-350.559 1014.65,-252 1016.39,-236.096 1017.12,-231.808 1014.65,-216 1013.29,-207.312 1010.75,-198.104 1008.03,-189.843"/>
<polygon fill="black" stroke="black" points="1011.31,-188.62 1004.71,-180.335 1004.71,-190.93 1011.31,-188.62"/>
</g>
<!-- sidebar&#45;&gt;siegehelper -->
<g id="edge90" class="edge"><title>sidebar&#45;&gt;siegehelper</title>
<path fill="none" stroke="black" d="M902.569,-513.32C779.419,-483.525 341.933,-374.727 304.645,-324 250.499,-250.336 299.949,-217.825 415.645,-144 468.421,-110.324 539.824,-97.9098 590.027,-93.4064"/>
<polygon fill="black" stroke="black" points="590.407,-96.8871 600.088,-92.5839 589.836,-89.9104 590.407,-96.8871"/>
</g>
<!-- speclisten -->
<g id="node33" class="node"><title>speclisten</title>
<ellipse fill="none" stroke="black" cx="1831.65" cy="-450" rx="45.4919" ry="18"/>
<text text-anchor="middle" x="1831.65" y="-446.3" font-family="Times,serif" font-size="14.00">speclisten</text>
</g>
<!-- sidebar&#45;&gt;speclisten -->
<g id="edge89" class="edge"><title>sidebar&#45;&gt;speclisten</title>
<path fill="none" stroke="black" d="M969.646,-516.709C1001.83,-512.895 1050.89,-507.408 1093.65,-504 1397.1,-479.809 1478.08,-522.137 1777.65,-468 1781.51,-467.302 1785.48,-466.409 1789.43,-465.397"/>
<polygon fill="black" stroke="black" points="1790.45,-468.746 1799.14,-462.685 1788.56,-462.004 1790.45,-468.746"/>
</g>
<!-- speclisten&#45;&gt;server -->
<g id="edge129" class="edge"><title>speclisten&#45;&gt;server</title>
<path fill="none" stroke="black" d="M1869,-439.559C1921.44,-426.307 2016.42,-402.306 2069.7,-388.841"/>
<polygon fill="black" stroke="black" points="2070.63,-392.218 2079.46,-386.374 2068.91,-385.431 2070.63,-392.218"/>
</g>
<!-- speclisten&#45;&gt;speclisten -->
<g id="edge130" class="edge"><title>speclisten&#45;&gt;speclisten</title>
<path fill="none" stroke="black" d="M1863.34,-462.985C1880.02,-465.086 1895.14,-460.758 1895.14,-450 1895.14,-441.511 1885.73,-437.026 1873.56,-436.544"/>
<polygon fill="black" stroke="black" points="1873.16,-433.058 1863.34,-437.015 1873.49,-440.051 1873.16,-433.058"/>
</g>
<!-- updatetoreadyroomhelper -->
<g id="node34" class="node"><title>updatetoreadyroomhelper</title>
<ellipse fill="none" stroke="black" cx="1767.65" cy="-522" rx="101.282" ry="18"/>
<text text-anchor="middle" x="1767.65" y="-518.3" font-family="Times,serif" font-size="14.00">updatetoreadyroomhelper</text>
</g>
<!-- updatetoreadyroomhelper&#45;&gt;captains -->
<g id="edge91" class="edge"><title>updatetoreadyroomhelper&#45;&gt;captains</title>
<path fill="none" stroke="black" d="M1691.36,-510.105C1675.29,-507.955 1658.42,-505.808 1642.65,-504 1451.11,-482.05 1222.45,-462.837 1123.86,-454.89"/>
<polygon fill="black" stroke="black" points="1123.86,-451.379 1113.61,-454.067 1123.3,-458.356 1123.86,-451.379"/>
</g>
<!-- updatetoreadyroomhelper&#45;&gt;balance -->
<g id="edge92" class="edge"><title>updatetoreadyroomhelper&#45;&gt;balance</title>
<path fill="none" stroke="black" d="M1866.23,-517.526C2121.22,-508.336 2783.98,-483.058 2801.65,-468 2832.43,-441.763 2820.65,-419.447 2820.65,-379 2820.65,-379 2820.65,-379 2820.65,-233 2820.65,-117.222 1912.14,-95.2811 1690.82,-91.6539"/>
<polygon fill="black" stroke="black" points="1690.56,-88.1494 1680.51,-91.4901 1690.45,-95.1485 1690.56,-88.1494"/>
</g>
<!-- voterandom -->
<g id="node35" class="node"><title>voterandom</title>
<ellipse fill="none" stroke="black" cx="1602.65" cy="-162" rx="53.0913" ry="18"/>
<text text-anchor="middle" x="1602.65" y="-158.3" font-family="Times,serif" font-size="14.00">voterandom</text>
</g>
<!-- voterandom&#45;&gt;balance -->
<g id="edge93" class="edge"><title>voterandom&#45;&gt;balance</title>
<path fill="none" stroke="black" d="M1612.33,-144.055C1617.04,-135.801 1622.82,-125.701 1628.05,-116.538"/>
<polygon fill="black" stroke="black" points="1631.13,-118.208 1633.05,-107.789 1625.05,-114.735 1631.13,-118.208"/>
</g>
<!-- betterknownas -->
<g id="node36" class="node"><title>betterknownas</title>
<ellipse fill="none" stroke="black" cx="1566.65" cy="-450" rx="61.99" ry="18"/>
<text text-anchor="middle" x="1566.65" y="-446.3" font-family="Times,serif" font-size="14.00">betterknownas</text>
</g>
<!-- betterknownas&#45;&gt;server -->
<g id="edge95" class="edge"><title>betterknownas&#45;&gt;server</title>
<path fill="none" stroke="black" d="M1615.97,-438.921C1628.85,-436.47 1642.74,-433.985 1655.65,-432 1806.19,-408.846 1986.27,-390.563 2066.49,-382.905"/>
<polygon fill="black" stroke="black" points="2067.06,-386.367 2076.68,-381.938 2066.4,-379.398 2067.06,-386.367"/>
</g>
<!-- betterknownas&#45;&gt;communityslots -->
<g id="edge94" class="edge"><title>betterknownas&#45;&gt;communityslots</title>
<path fill="none" stroke="black" d="M1613.21,-438.131C1651.04,-428.248 1699.97,-412.694 1711.65,-396 1720.81,-382.887 1721.24,-372.802 1711.65,-360 1677.41,-314.34 1273.8,-230.659 1218.65,-216 1164.23,-201.537 1101.8,-186.729 1057.21,-176.455"/>
<polygon fill="black" stroke="black" points="1057.94,-173.031 1047.41,-174.204 1056.37,-179.854 1057.94,-173.031"/>
</g>
<!-- betterknownas&#45;&gt;teamroles -->
<g id="edge99" class="edge"><title>betterknownas&#45;&gt;teamroles</title>
<path fill="none" stroke="black" d="M1587.75,-432.765C1600.19,-423.199 1616.07,-410.978 1629.56,-400.606"/>
<polygon fill="black" stroke="black" points="1631.8,-403.298 1637.59,-394.427 1627.53,-397.75 1631.8,-403.298"/>
</g>
<!-- betterknownas&#45;&gt;betterknownas -->
<g id="edge96" class="edge"><title>betterknownas&#45;&gt;betterknownas</title>
<path fill="none" stroke="black" d="M1608.9,-463.203C1628.86,-464.737 1646.39,-460.336 1646.39,-450 1646.39,-441.441 1634.37,-436.951 1618.9,-436.532"/>
<polygon fill="black" stroke="black" points="1618.8,-433.034 1608.9,-436.797 1618.99,-440.031 1618.8,-433.034"/>
</g>
<!-- greetings -->
<g id="node37" class="node"><title>greetings</title>
<ellipse fill="none" stroke="black" cx="1801.65" cy="-378" rx="42.7926" ry="18"/>
<text text-anchor="middle" x="1801.65" y="-374.3" font-family="Times,serif" font-size="14.00">greetings</text>
</g>
<!-- betterknownas&#45;&gt;greetings -->
<g id="edge97" class="edge"><title>betterknownas&#45;&gt;greetings</title>
<path fill="none" stroke="black" d="M1608.37,-436.583C1644.44,-425.846 1697.99,-409.905 1744.65,-396 1748.94,-394.721 1753.41,-393.388 1757.88,-392.055"/>
<polygon fill="black" stroke="black" points="1759,-395.372 1767.59,-389.161 1757,-388.664 1759,-395.372"/>
</g>
<!-- taglines -->
<g id="node38" class="node"><title>taglines</title>
<ellipse fill="none" stroke="black" cx="1844.65" cy="-306" rx="38.1938" ry="18"/>
<text text-anchor="middle" x="1844.65" y="-302.3" font-family="Times,serif" font-size="14.00">taglines</text>
</g>
<!-- betterknownas&#45;&gt;taglines -->
<g id="edge98" class="edge"><title>betterknownas&#45;&gt;taglines</title>
<path fill="none" stroke="black" d="M1616.99,-439.302C1629.61,-436.894 1643.12,-434.335 1655.65,-432 1699.61,-423.805 1824.99,-430.335 1853.65,-396 1867.97,-378.841 1863.34,-352.847 1856.55,-333.375"/>
<polygon fill="black" stroke="black" points="1859.74,-331.942 1852.88,-323.869 1853.21,-334.458 1859.74,-331.942"/>
</g>
<!-- forceroundstart -->
<g id="node39" class="node"><title>forceroundstart</title>
<ellipse fill="none" stroke="black" cx="377.645" cy="-306" rx="64.189" ry="18"/>
<text text-anchor="middle" x="377.645" y="-302.3" font-family="Times,serif" font-size="14.00">forceroundstart</text>
</g>
<!-- forceroundstart&#45;&gt;bots -->
<g id="edge100" class="edge"><title>forceroundstart&#45;&gt;bots</title>
<path fill="none" stroke="black" d="M405.853,-289.811C427.19,-278.322 456.412,-262.587 478.075,-250.923"/>
<polygon fill="black" stroke="black" points="480,-253.861 487.145,-246.039 476.681,-247.698 480,-253.861"/>
</g>
<!-- push -->
<g id="node40" class="node"><title>push</title>
<ellipse fill="none" stroke="black" cx="1455.65" cy="-522" rx="27.0966" ry="18"/>
<text text-anchor="middle" x="1455.65" y="-518.3" font-family="Times,serif" font-size="14.00">push</text>
</g>
<!-- push&#45;&gt;captains -->
<g id="edge101" class="edge"><title>push&#45;&gt;captains</title>
<path fill="none" stroke="black" d="M1429.76,-516.244C1366.15,-504.558 1201.54,-474.314 1120.75,-459.47"/>
<polygon fill="black" stroke="black" points="1121.32,-456.018 1110.86,-457.653 1120.06,-462.902 1121.32,-456.018"/>
</g>
<!-- push&#45;&gt;server -->
<g id="edge103" class="edge"><title>push&#45;&gt;server</title>
<path fill="none" stroke="black" d="M1481.21,-515.185C1498.92,-511.386 1523.1,-506.653 1544.65,-504 1615.22,-495.31 2134.8,-519.679 2183.65,-468 2194.64,-456.372 2191,-446.208 2183.65,-432 2175,-415.312 2158.42,-402.756 2143.04,-394.064"/>
<polygon fill="black" stroke="black" points="2144.67,-390.967 2134.19,-389.391 2141.4,-397.156 2144.67,-390.967"/>
</g>
<!-- push&#45;&gt;bots -->
<g id="edge102" class="edge"><title>push&#45;&gt;bots</title>
<path fill="none" stroke="black" d="M1428.88,-517.855C1337.95,-507.152 1045.44,-472.546 1025.65,-468 929.072,-445.822 898.749,-448.392 814.645,-396 795.44,-384.036 795.664,-374.912 778.645,-360 758.855,-342.66 751.054,-341.766 731.645,-324 715.635,-309.345 717.152,-299.341 698.645,-288 672.608,-272.045 590.873,-252.739 543.182,-242.397"/>
<polygon fill="black" stroke="black" points="543.781,-238.946 533.269,-240.27 542.312,-245.79 543.781,-238.946"/>
</g>
<!-- push&#45;&gt;karma -->
<g id="edge104" class="edge"><title>push&#45;&gt;karma</title>
<path fill="none" stroke="black" d="M1459.77,-504.113C1464.55,-485.843 1473.25,-456.093 1484.65,-432 1492.76,-414.836 1502.32,-414.225 1507.65,-396 1512.13,-380.642 1513.89,-374.733 1507.65,-360 1454.4,-234.299 1308.19,-143.478 1242.43,-107.747"/>
<polygon fill="black" stroke="black" points="1243.81,-104.511 1233.34,-102.877 1240.5,-110.683 1243.81,-104.511"/>
</g>
<!-- hidefullmodlist -->
<g id="node41" class="node"><title>hidefullmodlist</title>
<ellipse fill="none" stroke="black" cx="2295.65" cy="-450" rx="64.9885" ry="18"/>
<text text-anchor="middle" x="2295.65" y="-446.3" font-family="Times,serif" font-size="14.00">hidefullmodlist</text>
</g>
<!-- push&#45;&gt;hidefullmodlist -->
<g id="edge105" class="edge"><title>push&#45;&gt;hidefullmodlist</title>
<path fill="none" stroke="black" d="M1481.21,-515.166C1498.92,-511.358 1523.1,-506.623 1544.65,-504 1841.55,-467.859 1920.18,-507.585 2216.65,-468 2223.72,-467.055 2231.1,-465.815 2238.39,-464.433"/>
<polygon fill="black" stroke="black" points="2239.11,-467.859 2248.24,-462.476 2237.74,-460.993 2239.11,-467.859"/>
</g>
<!-- spawnselectionoverrides -->
<g id="node42" class="node"><title>spawnselectionoverrides</title>
<ellipse fill="none" stroke="black" cx="1199.65" cy="-522" rx="96.6831" ry="18"/>
<text text-anchor="middle" x="1199.65" y="-518.3" font-family="Times,serif" font-size="14.00">spawnselectionoverrides</text>
</g>
<!-- spawnselectionoverrides&#45;&gt;captains -->
<g id="edge106" class="edge"><title>spawnselectionoverrides&#45;&gt;captains</title>
<path fill="none" stroke="black" d="M1170.65,-504.765C1151.85,-494.235 1127.3,-480.488 1107.74,-469.531"/>
<polygon fill="black" stroke="black" points="1109.29,-466.391 1098.86,-464.559 1105.87,-472.499 1109.29,-466.391"/>
</g>
<!-- chatchannels -->
<g id="node43" class="node"><title>chatchannels</title>
<ellipse fill="none" stroke="black" cx="1117.65" cy="-234" rx="55.7903" ry="18"/>
<text text-anchor="middle" x="1117.65" y="-230.3" font-family="Times,serif" font-size="14.00">chatchannels</text>
</g>
<!-- chatchannels&#45;&gt;communityslots -->
<g id="edge107" class="edge"><title>chatchannels&#45;&gt;communityslots</title>
<path fill="none" stroke="black" d="M1091.9,-217.983C1074.86,-208.041 1052.27,-194.862 1033.47,-183.9"/>
<polygon fill="black" stroke="black" points="1035,-180.736 1024.59,-178.72 1031.47,-186.782 1035,-180.736"/>
</g>
<!-- chatchannels&#45;&gt;chatchannels -->
<g id="edge108" class="edge"><title>chatchannels&#45;&gt;chatchannels</title>
<path fill="none" stroke="black" d="M1156.04,-247.137C1174.85,-248.855 1191.54,-244.477 1191.54,-234 1191.54,-225.488 1180.52,-221.001 1166.3,-220.54"/>
<polygon fill="black" stroke="black" points="1165.93,-217.05 1156.04,-220.863 1166.15,-224.046 1165.93,-217.05"/>
</g>
<!-- newcomms -->
<g id="node44" class="node"><title>newcomms</title>
<ellipse fill="none" stroke="black" cx="1716.65" cy="-450" rx="51.9908" ry="18"/>
<text text-anchor="middle" x="1716.65" y="-446.3" font-family="Times,serif" font-size="14.00">newcomms</text>
</g>
<!-- newcomms&#45;&gt;server -->
<g id="edge113" class="edge"><title>newcomms&#45;&gt;server</title>
<path fill="none" stroke="black" d="M1750.9,-436.319C1756.78,-434.758 1762.85,-433.268 1768.65,-432 1874.74,-408.8 2002.04,-391.261 2066.74,-383.457"/>
<polygon fill="black" stroke="black" points="2067.44,-386.9 2076.95,-382.245 2066.61,-379.949 2067.44,-386.9"/>
</g>
<!-- newcomms&#45;&gt;server -->
<g id="edge114" class="edge"><title>newcomms&#45;&gt;server</title>
<path fill="none" stroke="black" d="M1758.39,-439.05C1767.72,-436.541 1777.52,-433.996 1786.65,-432 1886.88,-410.082 2006.04,-393.216 2067.58,-384.839"/>
<polygon fill="black" stroke="black" points="2068.23,-388.283 2077.67,-383.471 2067.29,-381.347 2068.23,-388.283"/>
</g>
<!-- newcomms&#45;&gt;communityslots -->
<g id="edge112" class="edge"><title>newcomms&#45;&gt;communityslots</title>
<path fill="none" stroke="black" d="M1755.59,-437.859C1799.06,-425.104 1864.4,-404.837 1872.65,-396 1905.89,-360.361 1923.63,-324.771 1891.65,-288 1838,-226.337 1278.17,-182.168 1072.72,-167.927"/>
<polygon fill="black" stroke="black" points="1072.83,-164.427 1062.62,-167.231 1072.35,-171.41 1072.83,-164.427"/>
</g>
<!-- teamres -->
<g id="node45" class="node"><title>teamres</title>
<ellipse fill="none" stroke="black" cx="929.645" cy="-234" rx="38.1938" ry="18"/>
<text text-anchor="middle" x="929.645" y="-230.3" font-family="Times,serif" font-size="14.00">teamres</text>
</g>
<!-- teamres&#45;&gt;communityslots -->
<g id="edge115" class="edge"><title>teamres&#45;&gt;communityslots</title>
<path fill="none" stroke="black" d="M945.076,-217.116C953.694,-208.244 964.608,-197.009 974.256,-187.077"/>
<polygon fill="black" stroke="black" points="976.871,-189.409 981.328,-179.797 971.85,-184.531 976.871,-189.409"/>
</g>
<!-- serverstart -->
<g id="node46" class="node"><title>serverstart</title>
<ellipse fill="none" stroke="black" cx="3347.65" cy="-450" rx="47.3916" ry="18"/>
<text text-anchor="middle" x="3347.65" y="-446.3" font-family="Times,serif" font-size="14.00">serverstart</text>
</g>
<!-- serverstart&#45;&gt;client -->
<g id="edge116" class="edge"><title>serverstart&#45;&gt;client</title>
<path fill="none" stroke="black" d="M3322.78,-434.496C3308.48,-424.68 3290.8,-411.542 3276.94,-400.514"/>
<polygon fill="black" stroke="black" points="3278.85,-397.553 3268.88,-393.968 3274.44,-402.988 3278.85,-397.553"/>
</g>
<!-- serverstart&#45;&gt;client -->
<g id="edge117" class="edge"><title>serverstart&#45;&gt;client</title>
<path fill="none" stroke="black" d="M3331.88,-432.765C3318.78,-421.996 3300.06,-407.863 3284.25,-396.79"/>
<polygon fill="black" stroke="black" points="3286.04,-393.775 3275.82,-390.994 3282.07,-399.543 3286.04,-393.775"/>
</g>
<!-- infestedhelper -->
<g id="node47" class="node"><title>infestedhelper</title>
<ellipse fill="none" stroke="black" cx="1190.65" cy="-378" rx="60.3893" ry="18"/>
<text text-anchor="middle" x="1190.65" y="-374.3" font-family="Times,serif" font-size="14.00">infestedhelper</text>
</g>
<!-- infestedhelper&#45;&gt;mapvotehelper -->
<g id="edge120" class="edge"><title>infestedhelper&#45;&gt;mapvotehelper</title>
<path fill="none" stroke="black" d="M1202.51,-360.055C1208.35,-351.715 1215.5,-341.491 1221.97,-332.252"/>
<polygon fill="black" stroke="black" points="1225.03,-333.988 1227.89,-323.789 1219.29,-329.974 1225.03,-333.988"/>
</g>
<!-- permissions -->
<g id="node48" class="node"><title>permissions</title>
<ellipse fill="none" stroke="black" cx="2580.65" cy="-90" rx="53.0913" ry="18"/>
<text text-anchor="middle" x="2580.65" y="-86.3" font-family="Times,serif" font-size="14.00">permissions</text>
</g>
<!-- permissions&#45;&gt;TGNSCommonServer -->
<g id="edge122" class="edge"><title>permissions&#45;&gt;TGNSCommonServer</title>
<path fill="none" stroke="black" d="M2541.2,-77.8187C2532.2,-75.5969 2522.64,-73.4924 2513.65,-72 2316.72,-39.3363 2083.21,-26.5924 1953.72,-21.7781"/>
<polygon fill="black" stroke="black" points="1953.55,-18.2697 1943.43,-21.4041 1953.29,-25.2651 1953.55,-18.2697"/>
</g>
<!-- permissions&#45;&gt;permissions -->
<g id="edge121" class="edge"><title>permissions&#45;&gt;permissions</title>
<path fill="none" stroke="black" d="M2617.33,-103.101C2635.62,-104.914 2651.94,-100.547 2651.94,-90 2651.94,-81.5131 2641.37,-77.0277 2627.71,-76.5439"/>
<polygon fill="black" stroke="black" points="2627.2,-73.0592 2617.33,-76.8988 2627.44,-80.0551 2627.2,-73.0592"/>
</g>
<!-- pregamescoreboardsort -->
<g id="node49" class="node"><title>pregamescoreboardsort</title>
<ellipse fill="none" stroke="black" cx="3505.65" cy="-450" rx="92.8835" ry="18"/>
<text text-anchor="middle" x="3505.65" y="-446.3" font-family="Times,serif" font-size="14.00">pregamescoreboardsort</text>
</g>
<!-- pregamescoreboardsort&#45;&gt;client -->
<g id="edge123" class="edge"><title>pregamescoreboardsort&#45;&gt;client</title>
<path fill="none" stroke="black" d="M3454.85,-434.834C3406.45,-421.335 3334.73,-401.334 3291.56,-389.294"/>
<polygon fill="black" stroke="black" points="3292.32,-385.874 3281.75,-386.559 3290.44,-392.617 3292.32,-385.874"/>
</g>
<!-- printablenames -->
<g id="node50" class="node"><title>printablenames</title>
<ellipse fill="none" stroke="black" cx="2483.65" cy="-666" rx="64.9885" ry="18"/>
<text text-anchor="middle" x="2483.65" y="-662.3" font-family="Times,serif" font-size="14.00">printablenames</text>
</g>
<!-- printablenames&#45;&gt;printablenames -->
<g id="edge124" class="edge"><title>printablenames&#45;&gt;printablenames</title>
<path fill="none" stroke="black" d="M2528.05,-679.233C2548.64,-680.677 2566.64,-676.266 2566.64,-666 2566.64,-657.499 2554.3,-653.013 2538.36,-652.541"/>
<polygon fill="black" stroke="black" points="2537.97,-649.049 2528.05,-652.767 2538.12,-656.047 2537.97,-649.049"/>
</g>
<!-- recordinghelper -->
<g id="node51" class="node"><title>recordinghelper</title>
<ellipse fill="none" stroke="black" cx="2108.65" cy="-450" rx="66.0889" ry="18"/>
<text text-anchor="middle" x="2108.65" y="-446.3" font-family="Times,serif" font-size="14.00">recordinghelper</text>
</g>
<!-- recordinghelper&#45;&gt;server -->
<g id="edge125" class="edge"><title>recordinghelper&#45;&gt;server</title>
<path fill="none" stroke="black" d="M2108.65,-431.697C2108.65,-423.983 2108.65,-414.712 2108.65,-406.112"/>
<polygon fill="black" stroke="black" points="2112.15,-406.104 2108.65,-396.104 2105.15,-406.104 2112.15,-406.104"/>
</g>
<!-- squadnumbers -->
<g id="node52" class="node"><title>squadnumbers</title>
<ellipse fill="none" stroke="black" cx="2730.65" cy="-450" rx="61.99" ry="18"/>
<text text-anchor="middle" x="2730.65" y="-446.3" font-family="Times,serif" font-size="14.00">squadnumbers</text>
</g>
<!-- squadnumbers&#45;&gt;server -->
<g id="edge127" class="edge"><title>squadnumbers&#45;&gt;server</title>
<path fill="none" stroke="black" d="M2686.15,-437.345C2677.41,-435.339 2668.27,-433.44 2659.65,-432 2471.4,-400.567 2243.62,-386.007 2150.94,-381.058"/>
<polygon fill="black" stroke="black" points="2151,-377.557 2140.84,-380.528 2150.64,-384.547 2151,-377.557"/>
</g>
<!-- squadnumbers&#45;&gt;client -->
<g id="edge126" class="edge"><title>squadnumbers&#45;&gt;client</title>
<path fill="none" stroke="black" d="M2783.27,-440.491C2801.15,-437.681 2821.25,-434.608 2839.65,-432 2977.07,-412.511 3140.58,-392.585 3214.65,-383.734"/>
<polygon fill="black" stroke="black" points="3215.4,-387.169 3224.92,-382.51 3214.57,-380.219 3215.4,-387.169"/>
</g>
<!-- scoreboardicons -->
<g id="node53" class="node"><title>scoreboardicons</title>
<ellipse fill="none" stroke="black" cx="2652.65" cy="-666" rx="67.6881" ry="18"/>
<text text-anchor="middle" x="2652.65" y="-662.3" font-family="Times,serif" font-size="14.00">scoreboardicons</text>
</g>
<!-- scoreboardicons&#45;&gt;scoreboardicons -->
<g id="edge128" class="edge"><title>scoreboardicons&#45;&gt;scoreboardicons</title>
<path fill="none" stroke="black" d="M2698.87,-679.262C2719.93,-680.616 2738.24,-676.195 2738.24,-666 2738.24,-657.477 2725.45,-652.99 2708.95,-652.538"/>
<polygon fill="black" stroke="black" points="2708.8,-649.04 2698.87,-652.738 2708.94,-656.039 2708.8,-649.04"/>
</g>
<!-- crashreconnect -->
<g id="node54" class="node"><title>crashreconnect</title>
<ellipse fill="none" stroke="black" cx="3106.65" cy="-522" rx="63.8893" ry="18"/>
<text text-anchor="middle" x="3106.65" y="-518.3" font-family="Times,serif" font-size="14.00">crashreconnect</text>
</g>
<!-- crashreconnect&#45;&gt;client -->
<g id="edge134" class="edge"><title>crashreconnect&#45;&gt;client</title>
<path fill="none" stroke="black" d="M3129.19,-504.995C3142.83,-494.935 3160.3,-481.37 3174.65,-468 3197.02,-447.144 3220.11,-420.844 3235.7,-402.257"/>
<polygon fill="black" stroke="black" points="3238.41,-404.483 3242.11,-394.555 3233.02,-400.008 3238.41,-404.483"/>
</g>
<!-- basecommands -->
<g id="node55" class="node"><title>basecommands</title>
<ellipse fill="none" stroke="black" cx="934.645" cy="-594" rx="65.7887" ry="18"/>
<text text-anchor="middle" x="934.645" y="-590.3" font-family="Times,serif" font-size="14.00">basecommands</text>
</g>
<!-- basecommands&#45;&gt;sidebar -->
<g id="edge135" class="edge"><title>basecommands&#45;&gt;sidebar</title>
<path fill="none" stroke="black" d="M934.645,-575.697C934.645,-567.983 934.645,-558.712 934.645,-550.112"/>
<polygon fill="black" stroke="black" points="938.145,-550.104 934.645,-540.104 931.145,-550.104 938.145,-550.104"/>
</g>
<!-- readyroomrave -->
<g id="node56" class="node"><title>readyroomrave</title>
<ellipse fill="none" stroke="black" cx="2912.65" cy="-450" rx="64.189" ry="18"/>
<text text-anchor="middle" x="2912.65" y="-446.3" font-family="Times,serif" font-size="14.00">readyroomrave</text>
</g>
<!-- readyroomrave&#45;&gt;server -->
<g id="edge137" class="edge"><title>readyroomrave&#45;&gt;server</title>
<path fill="none" stroke="black" d="M2859.12,-439.965C2840.92,-437.116 2820.43,-434.154 2801.65,-432 2555.98,-403.835 2259.56,-386.8 2151.06,-381.124"/>
<polygon fill="black" stroke="black" points="2151.02,-377.617 2140.85,-380.595 2150.66,-384.608 2151.02,-377.617"/>
</g>
<!-- readyroomrave&#45;&gt;client -->
<g id="edge136" class="edge"><title>readyroomrave&#45;&gt;client</title>
<path fill="none" stroke="black" d="M2960.11,-437.699C2968.6,-435.748 2977.38,-433.777 2985.65,-432 3067.45,-414.422 3163.74,-395.995 3216.06,-386.173"/>
<polygon fill="black" stroke="black" points="3216.73,-389.607 3225.91,-384.326 3215.44,-382.727 3216.73,-389.607"/>
</g>
<!-- td -->
<g id="node57" class="node"><title>td</title>
<ellipse fill="none" stroke="black" cx="2783.65" cy="-666" rx="27" ry="18"/>
<text text-anchor="middle" x="2783.65" y="-662.3" font-family="Times,serif" font-size="14.00">td</text>
</g>
<!-- td&#45;&gt;td -->
<g id="edge138" class="edge"><title>td&#45;&gt;td</title>
<path fill="none" stroke="black" d="M2803.54,-678.432C2816.33,-681.675 2828.65,-677.531 2828.65,-666 2828.65,-657.622 2822.15,-653.143 2813.68,-652.564"/>
<polygon fill="black" stroke="black" points="2813.15,-649.1 2803.54,-653.568 2813.84,-656.066 2813.15,-649.1"/>
</g>
<!-- tgnsbadges -->
<g id="node58" class="node"><title>tgnsbadges</title>
<ellipse fill="none" stroke="black" cx="2310.65" cy="-522" rx="50.0912" ry="18"/>
<text text-anchor="middle" x="2310.65" y="-518.3" font-family="Times,serif" font-size="14.00">tgnsbadges</text>
</g>
<!-- tgnsbadges&#45;&gt;server -->
<g id="edge139" class="edge"><title>tgnsbadges&#45;&gt;server</title>
<path fill="none" stroke="black" d="M2333.33,-505.554C2357.41,-487.274 2389.47,-456.258 2369.65,-432 2342.56,-398.867 2218.2,-385.939 2151.39,-381.32"/>
<polygon fill="black" stroke="black" points="2151.39,-377.813 2141.18,-380.648 2150.93,-384.798 2151.39,-377.813"/>
</g>
<!-- wraplength -->
<g id="node59" class="node"><title>wraplength</title>
<ellipse fill="none" stroke="black" cx="3044.65" cy="-450" rx="50.0912" ry="18"/>
<text text-anchor="middle" x="3044.65" y="-446.3" font-family="Times,serif" font-size="14.00">wraplength</text>
</g>
<!-- wraplength&#45;&gt;server -->
<g id="edge141" class="edge"><title>wraplength&#45;&gt;server</title>
<path fill="none" stroke="black" d="M3008.74,-437.295C3001.19,-435.216 2993.21,-433.302 2985.65,-432 2822.33,-403.89 2304.45,-385.316 2151.55,-380.341"/>
<polygon fill="black" stroke="black" points="2151.28,-376.831 2141.18,-380.006 2151.06,-383.827 2151.28,-376.831"/>
</g>
<!-- wraplength&#45;&gt;client -->
<g id="edge140" class="edge"><title>wraplength&#45;&gt;client</title>
<path fill="none" stroke="black" d="M3080.27,-437.125C3118.94,-424.235 3180.34,-403.77 3219.01,-390.878"/>
<polygon fill="black" stroke="black" points="3220.42,-394.097 3228.8,-387.614 3218.21,-387.456 3220.42,-394.097"/>
</g>
<!-- ban -->
<g id="node60" class="node"><title>ban</title>
<ellipse fill="none" stroke="black" cx="2880.65" cy="-90" rx="27" ry="18"/>
<text text-anchor="middle" x="2880.65" y="-86.3" font-family="Times,serif" font-size="14.00">ban</text>
</g>
<!-- ban&#45;&gt;TGNSCommonServer -->
<g id="edge143" class="edge"><title>ban&#45;&gt;TGNSCommonServer</title>
<path fill="none" stroke="black" d="M2860.6,-77.8624C2855.53,-75.5215 2850.01,-73.3537 2844.65,-72 2678.52,-30.0534 2172.02,-21.2952 1955.04,-19.4742"/>
<polygon fill="black" stroke="black" points="1954.96,-15.9735 1944.93,-19.3927 1954.9,-22.9733 1954.96,-15.9735"/>
</g>
<!-- TGNSClientKicker -->
<g id="node61" class="node"><title>TGNSClientKicker</title>
<ellipse fill="none" stroke="black" cx="2880.65" cy="-18" rx="79.0865" ry="18"/>
<text text-anchor="middle" x="2880.65" y="-14.3" font-family="Times,serif" font-size="14.00">TGNSClientKicker</text>
</g>
<!-- ban&#45;&gt;TGNSClientKicker -->
<g id="edge142" class="edge"><title>ban&#45;&gt;TGNSClientKicker</title>
<path fill="none" stroke="black" d="M2880.65,-71.6966C2880.65,-63.9827 2880.65,-54.7125 2880.65,-46.1124"/>
<polygon fill="black" stroke="black" points="2884.15,-46.1043 2880.65,-36.1043 2877.15,-46.1044 2884.15,-46.1043"/>
</g>
<!-- improvedafkhandler -->
<g id="node62" class="node"><title>improvedafkhandler</title>
<ellipse fill="none" stroke="black" cx="2752.65" cy="-90" rx="82.5854" ry="18"/>
<text text-anchor="middle" x="2752.65" y="-86.3" font-family="Times,serif" font-size="14.00">improvedafkhandler</text>
</g>
<!-- improvedafkhandler&#45;&gt;TGNSCommonServer -->
<g id="edge144" class="edge"><title>improvedafkhandler&#45;&gt;TGNSCommonServer</title>
<path fill="none" stroke="black" d="M2694.4,-77.1748C2683.23,-75.209 2671.61,-73.3682 2660.65,-72 2407.12,-40.3519 2106.23,-26.9066 1953.79,-21.7843"/>
<polygon fill="black" stroke="black" points="1953.63,-18.2772 1943.52,-21.4443 1953.4,-25.2734 1953.63,-18.2772"/>
</g>
<!-- tempgroups -->
<g id="node63" class="node"><title>tempgroups</title>
<ellipse fill="none" stroke="black" cx="52.6453" cy="-162" rx="52.7911" ry="18"/>
<text text-anchor="middle" x="52.6453" y="-158.3" font-family="Times,serif" font-size="14.00">tempgroups</text>
</g>
<!-- tempgroups&#45;&gt;TGNSCommonServer -->
<g id="edge145" class="edge"><title>tempgroups&#45;&gt;TGNSCommonServer</title>
<path fill="none" stroke="black" d="M59.8385,-143.854C69.7838,-122.625 89.9371,-87.3917 119.645,-72 192.445,-34.2826 1395.65,-22.389 1754.44,-19.6723"/>
<polygon fill="black" stroke="black" points="1754.58,-23.1715 1764.55,-19.5965 1754.53,-16.1717 1754.58,-23.1715"/>
</g>
</g>
</svg>
